<?xml version="1.0" encoding="UTF-8" standalone="no"?>
<!DOCTYPE svg PUBLIC "-//W3C//DTD SVG 1.1//EN"
 "http://www.w3.org/Graphics/SVG/1.1/DTD/svg11.dtd">
<!-- Generated by graphviz version 2.40.1 (20161225.0304)
 -->
<!-- Title: snakemake_dag Pages: 1 -->
<svg width="1010pt" height="620pt"
 viewBox="0.00 0.00 1010.00 620.00" xmlns="http://www.w3.org/2000/svg" xmlns:xlink="http://www.w3.org/1999/xlink">
<g id="graph0" class="graph" transform="scale(1 1) rotate(0) translate(4 616)">
<title>snakemake_dag</title>
<polygon fill="#ffffff" stroke="transparent" points="-4,4 -4,-616 1006,-616 1006,4 -4,4"/>
<!-- 0 -->
<g id="node1" class="node">
<title>0</title>
<path fill="none" stroke="#568ad8" stroke-width="2" stroke-dasharray="5,2" d="M384,-36C384,-36 354,-36 354,-36 348,-36 342,-30 342,-24 342,-24 342,-12 342,-12 342,-6 348,0 354,0 354,0 384,0 384,0 390,0 396,-6 396,-12 396,-12 396,-24 396,-24 396,-30 390,-36 384,-36"/>
<text text-anchor="middle" x="369" y="-15.5" font-family="sans" font-size="10.00" fill="#000000">all</text>
</g>
<!-- 1 -->
<g id="node2" class="node">
<title>1</title>
<path fill="none" stroke="#59d856" stroke-width="2" stroke-dasharray="5,2" d="M231.5,-108C231.5,-108 196.5,-108 196.5,-108 190.5,-108 184.5,-102 184.5,-96 184.5,-96 184.5,-84 184.5,-84 184.5,-78 190.5,-72 196.5,-72 196.5,-72 231.5,-72 231.5,-72 237.5,-72 243.5,-78 243.5,-84 243.5,-84 243.5,-96 243.5,-96 243.5,-102 237.5,-108 231.5,-108"/>
<text text-anchor="middle" x="214" y="-87.5" font-family="sans" font-size="10.00" fill="#000000">indexing</text>
</g>
<!-- 1&#45;&gt;0 -->
<g id="edge1" class="edge">
<title>1&#45;&gt;0</title>
<path fill="none" stroke="#c0c0c0" stroke-width="2" d="M243.5192,-76.2879C268.8978,-64.4991 305.5937,-47.4533 332.7515,-34.838"/>
<polygon fill="#c0c0c0" stroke="#c0c0c0" stroke-width="2" points="334.3308,-37.9636 341.9256,-30.5765 331.3818,-31.6151 334.3308,-37.9636"/>
</g>
<!-- 2 -->
<g id="node3" class="node">
<title>2</title>
<path fill="none" stroke="#56c1d8" stroke-width="2" stroke-dasharray="5,2" d="M348,-108C348,-108 274,-108 274,-108 268,-108 262,-102 262,-96 262,-96 262,-84 262,-84 262,-78 268,-72 274,-72 274,-72 348,-72 348,-72 354,-72 360,-78 360,-84 360,-84 360,-96 360,-96 360,-102 354,-108 348,-108"/>
<text text-anchor="middle" x="311" y="-87.5" font-family="sans" font-size="10.00" fill="#000000">Filter_and_report</text>
</g>
<!-- 2&#45;&gt;0 -->
<g id="edge2" class="edge">
<title>2&#45;&gt;0</title>
<path fill="none" stroke="#c0c0c0" stroke-width="2" d="M325.6358,-71.8314C332.3161,-63.5386 340.3568,-53.557 347.6904,-44.4533"/>
<polygon fill="#c0c0c0" stroke="#c0c0c0" stroke-width="2" points="350.6194,-46.3965 354.1671,-36.4133 345.1681,-42.0052 350.6194,-46.3965"/>
</g>
<!-- 3 -->
<g id="node4" class="node">
<title>3</title>
<path fill="none" stroke="#56c1d8" stroke-width="2" stroke-dasharray="5,2" d="M464,-108C464,-108 390,-108 390,-108 384,-108 378,-102 378,-96 378,-96 378,-84 378,-84 378,-78 384,-72 390,-72 390,-72 464,-72 464,-72 470,-72 476,-78 476,-84 476,-84 476,-96 476,-96 476,-102 470,-108 464,-108"/>
<text text-anchor="middle" x="427" y="-87.5" font-family="sans" font-size="10.00" fill="#000000">Filter_and_report</text>
</g>
<!-- 3&#45;&gt;0 -->
<g id="edge3" class="edge">
<title>3&#45;&gt;0</title>
<path fill="none" stroke="#c0c0c0" stroke-width="2" d="M412.3642,-71.8314C405.6839,-63.5386 397.6432,-53.557 390.3096,-44.4533"/>
<polygon fill="#c0c0c0" stroke="#c0c0c0" stroke-width="2" points="392.8319,-42.0052 383.8329,-36.4133 387.3806,-46.3965 392.8319,-42.0052"/>
</g>
<!-- 4 -->
<g id="node5" class="node">
<title>4</title>
<path fill="none" stroke="#56c1d8" stroke-width="2" stroke-dasharray="5,2" d="M595,-108C595,-108 521,-108 521,-108 515,-108 509,-102 509,-96 509,-96 509,-84 509,-84 509,-78 515,-72 521,-72 521,-72 595,-72 595,-72 601,-72 607,-78 607,-84 607,-84 607,-96 607,-96 607,-102 601,-108 595,-108"/>
<text text-anchor="middle" x="558" y="-87.5" font-family="sans" font-size="10.00" fill="#000000">Filter_and_report</text>
</g>
<!-- 4&#45;&gt;0 -->
<g id="edge4" class="edge">
<title>4&#45;&gt;0</title>
<path fill="none" stroke="#c0c0c0" stroke-width="2" d="M510.3073,-71.8314C477.8853,-59.4801 435.629,-43.3825 405.7997,-32.0189"/>
<polygon fill="#c0c0c0" stroke="#c0c0c0" stroke-width="2" points="406.7831,-28.6483 396.1922,-28.359 404.2911,-35.1897 406.7831,-28.6483"/>
</g>
<!-- 5 -->
<g id="node6" class="node">
<title>5</title>
<path fill="none" stroke="#56d88a" stroke-width="2" stroke-dasharray="5,2" d="M328,-180C328,-180 224,-180 224,-180 218,-180 212,-174 212,-168 212,-168 212,-156 212,-156 212,-150 218,-144 224,-144 224,-144 328,-144 328,-144 334,-144 340,-150 340,-156 340,-156 340,-168 340,-168 340,-174 334,-180 328,-180"/>
<text text-anchor="middle" x="276" y="-159.5" font-family="sans" font-size="10.00" fill="#000000">detect_polymorphisms</text>
</g>
<!-- 5&#45;&gt;2 -->
<g id="edge5" class="edge">
<title>5&#45;&gt;2</title>
<path fill="none" stroke="#c0c0c0" stroke-width="2" d="M284.832,-143.8314C288.6986,-135.8771 293.3206,-126.369 297.5968,-117.5723"/>
<polygon fill="#c0c0c0" stroke="#c0c0c0" stroke-width="2" points="300.8249,-118.9371 302.0491,-108.4133 294.5293,-115.8768 300.8249,-118.9371"/>
</g>
<!-- 6 -->
<g id="node7" class="node">
<title>6</title>
<path fill="none" stroke="#56d88a" stroke-width="2" stroke-dasharray="5,2" d="M479,-180C479,-180 375,-180 375,-180 369,-180 363,-174 363,-168 363,-168 363,-156 363,-156 363,-150 369,-144 375,-144 375,-144 479,-144 479,-144 485,-144 491,-150 491,-156 491,-156 491,-168 491,-168 491,-174 485,-180 479,-180"/>
<text text-anchor="middle" x="427" y="-159.5" font-family="sans" font-size="10.00" fill="#000000">detect_polymorphisms</text>
</g>
<!-- 6&#45;&gt;3 -->
<g id="edge6" class="edge">
<title>6&#45;&gt;3</title>
<path fill="none" stroke="#c0c0c0" stroke-width="2" d="M427,-143.8314C427,-136.131 427,-126.9743 427,-118.4166"/>
<polygon fill="#c0c0c0" stroke="#c0c0c0" stroke-width="2" points="430.5001,-118.4132 427,-108.4133 423.5001,-118.4133 430.5001,-118.4132"/>
</g>
<!-- 7 -->
<g id="node8" class="node">
<title>7</title>
<path fill="none" stroke="#56d88a" stroke-width="2" stroke-dasharray="5,2" d="M630,-180C630,-180 526,-180 526,-180 520,-180 514,-174 514,-168 514,-168 514,-156 514,-156 514,-150 520,-144 526,-144 526,-144 630,-144 630,-144 636,-144 642,-150 642,-156 642,-156 642,-168 642,-168 642,-174 636,-180 630,-180"/>
<text text-anchor="middle" x="578" y="-159.5" font-family="sans" font-size="10.00" fill="#000000">detect_polymorphisms</text>
</g>
<!-- 7&#45;&gt;4 -->
<g id="edge7" class="edge">
<title>7&#45;&gt;4</title>
<path fill="none" stroke="#c0c0c0" stroke-width="2" d="M572.9532,-143.8314C570.7906,-136.0463 568.2147,-126.7729 565.8152,-118.1347"/>
<polygon fill="#c0c0c0" stroke="#c0c0c0" stroke-width="2" points="569.1636,-117.1117 563.1148,-108.4133 562.419,-118.9852 569.1636,-117.1117"/>
</g>
<!-- 8 -->
<g id="node9" class="node">
<title>8</title>
<path fill="none" stroke="#bed856" stroke-width="2" stroke-dasharray="5,2" d="M325.5,-252C325.5,-252 210.5,-252 210.5,-252 204.5,-252 198.5,-246 198.5,-240 198.5,-240 198.5,-228 198.5,-228 198.5,-222 204.5,-216 210.5,-216 210.5,-216 325.5,-216 325.5,-216 331.5,-216 337.5,-222 337.5,-228 337.5,-228 337.5,-240 337.5,-240 337.5,-246 331.5,-252 325.5,-252"/>
<text text-anchor="middle" x="268" y="-231.5" font-family="sans" font-size="10.00" fill="#000000">variant_calling_first_step</text>
</g>
<!-- 8&#45;&gt;5 -->
<g id="edge8" class="edge">
<title>8&#45;&gt;5</title>
<path fill="none" stroke="#c0c0c0" stroke-width="2" d="M270.0187,-215.8314C270.8743,-208.131 271.8917,-198.9743 272.8426,-190.4166"/>
<polygon fill="#c0c0c0" stroke="#c0c0c0" stroke-width="2" points="276.3283,-190.7386 273.9541,-180.4133 269.3711,-189.9656 276.3283,-190.7386"/>
</g>
<!-- 9 -->
<g id="node10" class="node">
<title>9</title>
<path fill="none" stroke="#bed856" stroke-width="2" stroke-dasharray="5,2" d="M484.5,-252C484.5,-252 369.5,-252 369.5,-252 363.5,-252 357.5,-246 357.5,-240 357.5,-240 357.5,-228 357.5,-228 357.5,-222 363.5,-216 369.5,-216 369.5,-216 484.5,-216 484.5,-216 490.5,-216 496.5,-222 496.5,-228 496.5,-228 496.5,-240 496.5,-240 496.5,-246 490.5,-252 484.5,-252"/>
<text text-anchor="middle" x="427" y="-231.5" font-family="sans" font-size="10.00" fill="#000000">variant_calling_first_step</text>
</g>
<!-- 9&#45;&gt;6 -->
<g id="edge9" class="edge">
<title>9&#45;&gt;6</title>
<path fill="none" stroke="#c0c0c0" stroke-width="2" d="M427,-215.8314C427,-208.131 427,-198.9743 427,-190.4166"/>
<polygon fill="#c0c0c0" stroke="#c0c0c0" stroke-width="2" points="430.5001,-190.4132 427,-180.4133 423.5001,-190.4133 430.5001,-190.4132"/>
</g>
<!-- 10 -->
<g id="node11" class="node">
<title>10</title>
<path fill="none" stroke="#bed856" stroke-width="2" stroke-dasharray="5,2" d="M732.5,-252C732.5,-252 617.5,-252 617.5,-252 611.5,-252 605.5,-246 605.5,-240 605.5,-240 605.5,-228 605.5,-228 605.5,-222 611.5,-216 617.5,-216 617.5,-216 732.5,-216 732.5,-216 738.5,-216 744.5,-222 744.5,-228 744.5,-228 744.5,-240 744.5,-240 744.5,-246 738.5,-252 732.5,-252"/>
<text text-anchor="middle" x="675" y="-231.5" font-family="sans" font-size="10.00" fill="#000000">variant_calling_first_step</text>
</g>
<!-- 10&#45;&gt;7 -->
<g id="edge10" class="edge">
<title>10&#45;&gt;7</title>
<path fill="none" stroke="#c0c0c0" stroke-width="2" d="M650.5228,-215.8314C638.4605,-206.8779 623.746,-195.9558 610.7314,-186.2955"/>
<polygon fill="#c0c0c0" stroke="#c0c0c0" stroke-width="2" points="612.5852,-183.3127 602.4694,-180.1628 608.413,-188.9335 612.5852,-183.3127"/>
</g>
<!-- 11 -->
<g id="node12" class="node">
<title>11</title>
<path fill="none" stroke="#d85656" stroke-width="2" stroke-dasharray="5,2" d="M280,-324C280,-324 250,-324 250,-324 244,-324 238,-318 238,-312 238,-312 238,-300 238,-300 238,-294 244,-288 250,-288 250,-288 280,-288 280,-288 286,-288 292,-294 292,-300 292,-300 292,-312 292,-312 292,-318 286,-324 280,-324"/>
<text text-anchor="middle" x="265" y="-303.5" font-family="sans" font-size="10.00" fill="#000000">sorting</text>
</g>
<!-- 11&#45;&gt;8 -->
<g id="edge11" class="edge">
<title>11&#45;&gt;8</title>
<path fill="none" stroke="#c0c0c0" stroke-width="2" d="M265.757,-287.8314C266.0779,-280.131 266.4594,-270.9743 266.816,-262.4166"/>
<polygon fill="#c0c0c0" stroke="#c0c0c0" stroke-width="2" points="270.3133,-262.5503 267.2328,-252.4133 263.3194,-262.2589 270.3133,-262.5503"/>
</g>
<!-- 12 -->
<g id="node13" class="node">
<title>12</title>
<path fill="none" stroke="#d85656" stroke-width="2" stroke-dasharray="5,2" d="M442,-324C442,-324 412,-324 412,-324 406,-324 400,-318 400,-312 400,-312 400,-300 400,-300 400,-294 406,-288 412,-288 412,-288 442,-288 442,-288 448,-288 454,-294 454,-300 454,-300 454,-312 454,-312 454,-318 448,-324 442,-324"/>
<text text-anchor="middle" x="427" y="-303.5" font-family="sans" font-size="10.00" fill="#000000">sorting</text>
</g>
<!-- 12&#45;&gt;9 -->
<g id="edge12" class="edge">
<title>12&#45;&gt;9</title>
<path fill="none" stroke="#c0c0c0" stroke-width="2" d="M427,-287.8314C427,-280.131 427,-270.9743 427,-262.4166"/>
<polygon fill="#c0c0c0" stroke="#c0c0c0" stroke-width="2" points="430.5001,-262.4132 427,-252.4133 423.5001,-262.4133 430.5001,-262.4132"/>
</g>
<!-- 13 -->
<g id="node14" class="node">
<title>13</title>
<path fill="none" stroke="#d85656" stroke-width="2" stroke-dasharray="5,2" d="M713,-324C713,-324 683,-324 683,-324 677,-324 671,-318 671,-312 671,-312 671,-300 671,-300 671,-294 677,-288 683,-288 683,-288 713,-288 713,-288 719,-288 725,-294 725,-300 725,-300 725,-312 725,-312 725,-318 719,-324 713,-324"/>
<text text-anchor="middle" x="698" y="-303.5" font-family="sans" font-size="10.00" fill="#000000">sorting</text>
</g>
<!-- 13&#45;&gt;10 -->
<g id="edge13" class="edge">
<title>13&#45;&gt;10</title>
<path fill="none" stroke="#c0c0c0" stroke-width="2" d="M692.1961,-287.8314C689.7092,-280.0463 686.7469,-270.7729 683.9875,-262.1347"/>
<polygon fill="#c0c0c0" stroke="#c0c0c0" stroke-width="2" points="687.2591,-260.874 680.882,-252.4133 680.591,-263.0041 687.2591,-260.874"/>
</g>
<!-- 14 -->
<g id="node15" class="node">
<title>14</title>
<path fill="none" stroke="#56d8c1" stroke-width="2" stroke-dasharray="5,2" d="M294.5,-396C294.5,-396 223.5,-396 223.5,-396 217.5,-396 211.5,-390 211.5,-384 211.5,-384 211.5,-372 211.5,-372 211.5,-366 217.5,-360 223.5,-360 223.5,-360 294.5,-360 294.5,-360 300.5,-360 306.5,-366 306.5,-372 306.5,-372 306.5,-384 306.5,-384 306.5,-390 300.5,-396 294.5,-396"/>
<text text-anchor="middle" x="259" y="-375.5" font-family="sans" font-size="10.00" fill="#000000">convert_to_sam</text>
</g>
<!-- 14&#45;&gt;11 -->
<g id="edge14" class="edge">
<title>14&#45;&gt;11</title>
<path fill="none" stroke="#c0c0c0" stroke-width="2" d="M260.5141,-359.8314C261.1558,-352.131 261.9188,-342.9743 262.6319,-334.4166"/>
<polygon fill="#c0c0c0" stroke="#c0c0c0" stroke-width="2" points="266.1229,-334.6694 263.4656,-324.4133 259.1471,-334.088 266.1229,-334.6694"/>
</g>
<!-- 15 -->
<g id="node16" class="node">
<title>15</title>
<path fill="none" stroke="#56d8c1" stroke-width="2" stroke-dasharray="5,2" d="M462.5,-396C462.5,-396 391.5,-396 391.5,-396 385.5,-396 379.5,-390 379.5,-384 379.5,-384 379.5,-372 379.5,-372 379.5,-366 385.5,-360 391.5,-360 391.5,-360 462.5,-360 462.5,-360 468.5,-360 474.5,-366 474.5,-372 474.5,-372 474.5,-384 474.5,-384 474.5,-390 468.5,-396 462.5,-396"/>
<text text-anchor="middle" x="427" y="-375.5" font-family="sans" font-size="10.00" fill="#000000">convert_to_sam</text>
</g>
<!-- 15&#45;&gt;12 -->
<g id="edge15" class="edge">
<title>15&#45;&gt;12</title>
<path fill="none" stroke="#c0c0c0" stroke-width="2" d="M427,-359.8314C427,-352.131 427,-342.9743 427,-334.4166"/>
<polygon fill="#c0c0c0" stroke="#c0c0c0" stroke-width="2" points="430.5001,-334.4132 427,-324.4133 423.5001,-334.4133 430.5001,-334.4132"/>
</g>
<!-- 16 -->
<g id="node17" class="node">
<title>16</title>
<path fill="none" stroke="#56d8c1" stroke-width="2" stroke-dasharray="5,2" d="M779.5,-396C779.5,-396 708.5,-396 708.5,-396 702.5,-396 696.5,-390 696.5,-384 696.5,-384 696.5,-372 696.5,-372 696.5,-366 702.5,-360 708.5,-360 708.5,-360 779.5,-360 779.5,-360 785.5,-360 791.5,-366 791.5,-372 791.5,-372 791.5,-384 791.5,-384 791.5,-390 785.5,-396 779.5,-396"/>
<text text-anchor="middle" x="744" y="-375.5" font-family="sans" font-size="10.00" fill="#000000">convert_to_sam</text>
</g>
<!-- 16&#45;&gt;13 -->
<g id="edge16" class="edge">
<title>16&#45;&gt;13</title>
<path fill="none" stroke="#c0c0c0" stroke-width="2" d="M732.3923,-359.8314C727.2022,-351.7079 720.9768,-341.9637 715.2575,-333.0118"/>
<polygon fill="#c0c0c0" stroke="#c0c0c0" stroke-width="2" points="718.0974,-330.9559 709.764,-324.4133 712.1985,-334.7246 718.0974,-330.9559"/>
</g>
<!-- 17 -->
<g id="node18" class="node">
<title>17</title>
<path fill="none" stroke="#88d856" stroke-width="2" stroke-dasharray="5,2" d="M298,-468C298,-468 194,-468 194,-468 188,-468 182,-462 182,-456 182,-456 182,-444 182,-444 182,-438 188,-432 194,-432 194,-432 298,-432 298,-432 304,-432 310,-438 310,-444 310,-444 310,-456 310,-456 310,-462 304,-468 298,-468"/>
<text text-anchor="middle" x="246" y="-453" font-family="sans" font-size="10.00" fill="#000000">align_reads</text>
<text text-anchor="middle" x="246" y="-442" font-family="sans" font-size="10.00" fill="#000000">SAMPLES: SRR2589044</text>
</g>
<!-- 17&#45;&gt;14 -->
<g id="edge17" class="edge">
<title>17&#45;&gt;14</title>
<path fill="none" stroke="#c0c0c0" stroke-width="2" d="M249.2804,-431.8314C250.6708,-424.131 252.3241,-414.9743 253.8692,-406.4166"/>
<polygon fill="#c0c0c0" stroke="#c0c0c0" stroke-width="2" points="257.3428,-406.8761 255.6754,-396.4133 250.4542,-405.6322 257.3428,-406.8761"/>
</g>
<!-- 18 -->
<g id="node19" class="node">
<title>18</title>
<path fill="none" stroke="#88d856" stroke-width="2" stroke-dasharray="5,2" d="M479,-468C479,-468 375,-468 375,-468 369,-468 363,-462 363,-456 363,-456 363,-444 363,-444 363,-438 369,-432 375,-432 375,-432 479,-432 479,-432 485,-432 491,-438 491,-444 491,-444 491,-456 491,-456 491,-462 485,-468 479,-468"/>
<text text-anchor="middle" x="427" y="-453" font-family="sans" font-size="10.00" fill="#000000">align_reads</text>
<text text-anchor="middle" x="427" y="-442" font-family="sans" font-size="10.00" fill="#000000">SAMPLES: SRR2584863</text>
</g>
<!-- 18&#45;&gt;15 -->
<g id="edge18" class="edge">
<title>18&#45;&gt;15</title>
<path fill="none" stroke="#c0c0c0" stroke-width="2" d="M427,-431.8314C427,-424.131 427,-414.9743 427,-406.4166"/>
<polygon fill="#c0c0c0" stroke="#c0c0c0" stroke-width="2" points="430.5001,-406.4132 427,-396.4133 423.5001,-406.4133 430.5001,-406.4132"/>
</g>
<!-- 19 -->
<g id="node20" class="node">
<title>19</title>
<path fill="none" stroke="#88d856" stroke-width="2" stroke-dasharray="5,2" d="M808,-468C808,-468 704,-468 704,-468 698,-468 692,-462 692,-456 692,-456 692,-444 692,-444 692,-438 698,-432 704,-432 704,-432 808,-432 808,-432 814,-432 820,-438 820,-444 820,-444 820,-456 820,-456 820,-462 814,-468 808,-468"/>
<text text-anchor="middle" x="756" y="-453" font-family="sans" font-size="10.00" fill="#000000">align_reads</text>
<text text-anchor="middle" x="756" y="-442" font-family="sans" font-size="10.00" fill="#000000">SAMPLES: SRR2584866</text>
</g>
<!-- 19&#45;&gt;16 -->
<g id="edge19" class="edge">
<title>19&#45;&gt;16</title>
<path fill="none" stroke="#c0c0c0" stroke-width="2" d="M752.9719,-431.8314C751.6885,-424.131 750.1624,-414.9743 748.7361,-406.4166"/>
<polygon fill="#c0c0c0" stroke="#c0c0c0" stroke-width="2" points="752.1653,-405.7018 747.0689,-396.4133 745.2606,-406.8526 752.1653,-405.7018"/>
</g>
<!-- 20 -->
<g id="node21" class="node">
<title>20</title>
<path fill="none" stroke="#d8bc56" stroke-width="2" stroke-dasharray="5,2" d="M140,-540C140,-540 12,-540 12,-540 6,-540 0,-534 0,-528 0,-528 0,-516 0,-516 0,-510 6,-504 12,-504 12,-504 140,-504 140,-504 146,-504 152,-510 152,-516 152,-516 152,-528 152,-528 152,-534 146,-540 140,-540"/>
<text text-anchor="middle" x="76" y="-525" font-family="sans" font-size="10.00" fill="#000000">gun_zipping</text>
<text text-anchor="middle" x="76" y="-514" font-family="sans" font-size="10.00" fill="#000000">G_SAMPLES: SRR2589044_1</text>
</g>
<!-- 20&#45;&gt;17 -->
<g id="edge20" class="edge">
<title>20&#45;&gt;17</title>
<path fill="none" stroke="#c0c0c0" stroke-width="2" d="M118.8982,-503.8314C141.7357,-494.159 169.998,-482.1891 194.0687,-471.9944"/>
<polygon fill="#c0c0c0" stroke="#c0c0c0" stroke-width="2" points="195.5671,-475.1608 203.4103,-468.038 192.8371,-468.7151 195.5671,-475.1608"/>
</g>
<!-- 21 -->
<g id="node22" class="node">
<title>21</title>
<path fill="none" stroke="#d8bc56" stroke-width="2" stroke-dasharray="5,2" d="M310,-540C310,-540 182,-540 182,-540 176,-540 170,-534 170,-528 170,-528 170,-516 170,-516 170,-510 176,-504 182,-504 182,-504 310,-504 310,-504 316,-504 322,-510 322,-516 322,-516 322,-528 322,-528 322,-534 316,-540 310,-540"/>
<text text-anchor="middle" x="246" y="-525" font-family="sans" font-size="10.00" fill="#000000">gun_zipping</text>
<text text-anchor="middle" x="246" y="-514" font-family="sans" font-size="10.00" fill="#000000">G_SAMPLES: SRR2589044_2</text>
</g>
<!-- 21&#45;&gt;17 -->
<g id="edge21" class="edge">
<title>21&#45;&gt;17</title>
<path fill="none" stroke="#c0c0c0" stroke-width="2" d="M246,-503.8314C246,-496.131 246,-486.9743 246,-478.4166"/>
<polygon fill="#c0c0c0" stroke="#c0c0c0" stroke-width="2" points="249.5001,-478.4132 246,-468.4133 242.5001,-478.4133 249.5001,-478.4132"/>
</g>
<!-- 22 -->
<g id="node23" class="node">
<title>22</title>
<path fill="none" stroke="#d8bc56" stroke-width="2" stroke-dasharray="5,2" d="M480,-540C480,-540 352,-540 352,-540 346,-540 340,-534 340,-528 340,-528 340,-516 340,-516 340,-510 346,-504 352,-504 352,-504 480,-504 480,-504 486,-504 492,-510 492,-516 492,-516 492,-528 492,-528 492,-534 486,-540 480,-540"/>
<text text-anchor="middle" x="416" y="-525" font-family="sans" font-size="10.00" fill="#000000">gun_zipping</text>
<text text-anchor="middle" x="416" y="-514" font-family="sans" font-size="10.00" fill="#000000">G_SAMPLES: SRR2584863_1</text>
</g>
<!-- 22&#45;&gt;18 -->
<g id="edge22" class="edge">
<title>22&#45;&gt;18</title>
<path fill="none" stroke="#c0c0c0" stroke-width="2" d="M418.7758,-503.8314C419.9522,-496.131 421.3511,-486.9743 422.6586,-478.4166"/>
<polygon fill="#c0c0c0" stroke="#c0c0c0" stroke-width="2" points="426.1364,-478.8272 424.1869,-468.4133 419.2167,-477.7699 426.1364,-478.8272"/>
</g>
<!-- 23 -->
<g id="node24" class="node">
<title>23</title>
<path fill="none" stroke="#d8bc56" stroke-width="2" stroke-dasharray="5,2" d="M650,-540C650,-540 522,-540 522,-540 516,-540 510,-534 510,-528 510,-528 510,-516 510,-516 510,-510 516,-504 522,-504 522,-504 650,-504 650,-504 656,-504 662,-510 662,-516 662,-516 662,-528 662,-528 662,-534 656,-540 650,-540"/>
<text text-anchor="middle" x="586" y="-525" font-family="sans" font-size="10.00" fill="#000000">gun_zipping</text>
<text text-anchor="middle" x="586" y="-514" font-family="sans" font-size="10.00" fill="#000000">G_SAMPLES: SRR2584863_2</text>
</g>
<!-- 23&#45;&gt;18 -->
<g id="edge23" class="edge">
<title>23&#45;&gt;18</title>
<path fill="none" stroke="#c0c0c0" stroke-width="2" d="M545.8776,-503.8314C524.7068,-494.2446 498.5517,-482.4008 476.1697,-472.2655"/>
<polygon fill="#c0c0c0" stroke="#c0c0c0" stroke-width="2" points="477.3872,-468.9748 466.8339,-468.038 474.4997,-475.3515 477.3872,-468.9748"/>
</g>
<!-- 24 -->
<g id="node25" class="node">
<title>24</title>
<path fill="none" stroke="#d8bc56" stroke-width="2" stroke-dasharray="5,2" d="M820,-540C820,-540 692,-540 692,-540 686,-540 680,-534 680,-528 680,-528 680,-516 680,-516 680,-510 686,-504 692,-504 692,-504 820,-504 820,-504 826,-504 832,-510 832,-516 832,-516 832,-528 832,-528 832,-534 826,-540 820,-540"/>
<text text-anchor="middle" x="756" y="-525" font-family="sans" font-size="10.00" fill="#000000">gun_zipping</text>
<text text-anchor="middle" x="756" y="-514" font-family="sans" font-size="10.00" fill="#000000">G_SAMPLES: SRR2584866_1</text>
</g>
<!-- 24&#45;&gt;19 -->
<g id="edge24" class="edge">
<title>24&#45;&gt;19</title>
<path fill="none" stroke="#c0c0c0" stroke-width="2" d="M756,-503.8314C756,-496.131 756,-486.9743 756,-478.4166"/>
<polygon fill="#c0c0c0" stroke="#c0c0c0" stroke-width="2" points="759.5001,-478.4132 756,-468.4133 752.5001,-478.4133 759.5001,-478.4132"/>
</g>
<!-- 25 -->
<g id="node26" class="node">
<title>25</title>
<path fill="none" stroke="#d8bc56" stroke-width="2" stroke-dasharray="5,2" d="M990,-540C990,-540 862,-540 862,-540 856,-540 850,-534 850,-528 850,-528 850,-516 850,-516 850,-510 856,-504 862,-504 862,-504 990,-504 990,-504 996,-504 1002,-510 1002,-516 1002,-516 1002,-528 1002,-528 1002,-534 996,-540 990,-540"/>
<text text-anchor="middle" x="926" y="-525" font-family="sans" font-size="10.00" fill="#000000">gun_zipping</text>
<text text-anchor="middle" x="926" y="-514" font-family="sans" font-size="10.00" fill="#000000">G_SAMPLES: SRR2584866_2</text>
</g>
<!-- 25&#45;&gt;19 -->
<g id="edge25" class="edge">
<title>25&#45;&gt;19</title>
<path fill="none" stroke="#c0c0c0" stroke-width="2" d="M883.1018,-503.8314C860.2643,-494.159 832.002,-482.1891 807.9313,-471.9944"/>
<polygon fill="#c0c0c0" stroke="#c0c0c0" stroke-width="2" points="809.1629,-468.7151 798.5897,-468.038 806.4329,-475.1608 809.1629,-468.7151"/>
</g>
<!-- 26 -->
<g id="node27" class="node">
<title>26</title>
<path fill="none" stroke="#d88d56" stroke-width="2" stroke-dasharray="5,2" d="M213,-612C213,-612 109,-612 109,-612 103,-612 97,-606 97,-600 97,-600 97,-588 97,-588 97,-582 103,-576 109,-576 109,-576 213,-576 213,-576 219,-576 225,-582 225,-588 225,-588 225,-600 225,-600 225,-606 219,-612 213,-612"/>
<text text-anchor="middle" x="161" y="-597" font-family="sans" font-size="10.00" fill="#000000">trimming</text>
<text text-anchor="middle" x="161" y="-586" font-family="sans" font-size="10.00" fill="#000000">SAMPLES: SRR2589044</text>
</g>
<!-- 26&#45;&gt;20 -->
<g id="edge26" class="edge">
<title>26&#45;&gt;20</title>
<path fill="none" stroke="#c0c0c0" stroke-width="2" d="M139.5509,-575.8314C129.1822,-567.0485 116.5771,-556.3712 105.3354,-546.8489"/>
<polygon fill="#c0c0c0" stroke="#c0c0c0" stroke-width="2" points="107.3349,-543.9556 97.4422,-540.1628 102.8105,-549.297 107.3349,-543.9556"/>
</g>
<!-- 26&#45;&gt;21 -->
<g id="edge27" class="edge">
<title>26&#45;&gt;21</title>
<path fill="none" stroke="#c0c0c0" stroke-width="2" d="M182.4491,-575.8314C192.8178,-567.0485 205.4229,-556.3712 216.6646,-546.8489"/>
<polygon fill="#c0c0c0" stroke="#c0c0c0" stroke-width="2" points="219.1895,-549.297 224.5578,-540.1628 214.6651,-543.9556 219.1895,-549.297"/>
</g>
<!-- 27 -->
<g id="node28" class="node">
<title>27</title>
<path fill="none" stroke="#d88d56" stroke-width="2" stroke-dasharray="5,2" d="M553,-612C553,-612 449,-612 449,-612 443,-612 437,-606 437,-600 437,-600 437,-588 437,-588 437,-582 443,-576 449,-576 449,-576 553,-576 553,-576 559,-576 565,-582 565,-588 565,-588 565,-600 565,-600 565,-606 559,-612 553,-612"/>
<text text-anchor="middle" x="501" y="-597" font-family="sans" font-size="10.00" fill="#000000">trimming</text>
<text text-anchor="middle" x="501" y="-586" font-family="sans" font-size="10.00" fill="#000000">SAMPLES: SRR2584863</text>
</g>
<!-- 27&#45;&gt;22 -->
<g id="edge28" class="edge">
<title>27&#45;&gt;22</title>
<path fill="none" stroke="#c0c0c0" stroke-width="2" d="M479.5509,-575.8314C469.1822,-567.0485 456.5771,-556.3712 445.3354,-546.8489"/>
<polygon fill="#c0c0c0" stroke="#c0c0c0" stroke-width="2" points="447.3349,-543.9556 437.4422,-540.1628 442.8105,-549.297 447.3349,-543.9556"/>
</g>
<!-- 27&#45;&gt;23 -->
<g id="edge29" class="edge">
<title>27&#45;&gt;23</title>
<path fill="none" stroke="#c0c0c0" stroke-width="2" d="M522.4491,-575.8314C532.8178,-567.0485 545.4229,-556.3712 556.6646,-546.8489"/>
<polygon fill="#c0c0c0" stroke="#c0c0c0" stroke-width="2" points="559.1895,-549.297 564.5578,-540.1628 554.6651,-543.9556 559.1895,-549.297"/>
</g>
<!-- 28 -->
<g id="node29" class="node">
<title>28</title>
<path fill="none" stroke="#d88d56" stroke-width="2" stroke-dasharray="5,2" d="M893,-612C893,-612 789,-612 789,-612 783,-612 777,-606 777,-600 777,-600 777,-588 777,-588 777,-582 783,-576 789,-576 789,-576 893,-576 893,-576 899,-576 905,-582 905,-588 905,-588 905,-600 905,-600 905,-606 899,-612 893,-612"/>
<text text-anchor="middle" x="841" y="-597" font-family="sans" font-size="10.00" fill="#000000">trimming</text>
<text text-anchor="middle" x="841" y="-586" font-family="sans" font-size="10.00" fill="#000000">SAMPLES: SRR2584866</text>
</g>
<!-- 28&#45;&gt;24 -->
<g id="edge30" class="edge">
<title>28&#45;&gt;24</title>
<path fill="none" stroke="#c0c0c0" stroke-width="2" d="M819.5509,-575.8314C809.1822,-567.0485 796.5771,-556.3712 785.3354,-546.8489"/>
<polygon fill="#c0c0c0" stroke="#c0c0c0" stroke-width="2" points="787.3349,-543.9556 777.4422,-540.1628 782.8105,-549.297 787.3349,-543.9556"/>
</g>
<!-- 28&#45;&gt;25 -->
<g id="edge31" class="edge">
<title>28&#45;&gt;25</title>
<path fill="none" stroke="#c0c0c0" stroke-width="2" d="M862.4491,-575.8314C872.8178,-567.0485 885.4229,-556.3712 896.6646,-546.8489"/>
<polygon fill="#c0c0c0" stroke="#c0c0c0" stroke-width="2" points="899.1895,-549.297 904.5578,-540.1628 894.6651,-543.9556 899.1895,-549.297"/>
</g>
</g>
</svg>
