<?xml version="1.0" encoding="UTF-8" standalone="no"?>
<!DOCTYPE svg PUBLIC "-//W3C//DTD SVG 1.1//EN"
 "http://www.w3.org/Graphics/SVG/1.1/DTD/svg11.dtd">
<!-- Generated by graphviz version 2.40.1 (20161225.0304)
 -->
<!-- Title: snakemake_dag Pages: 1 -->
<svg width="1168pt" height="620pt"
 viewBox="0.00 0.00 1167.50 620.00" xmlns="http://www.w3.org/2000/svg" xmlns:xlink="http://www.w3.org/1999/xlink">
<g id="graph0" class="graph" transform="scale(1 1) rotate(0) translate(4 616)">
<title>snakemake_dag</title>
<polygon fill="#ffffff" stroke="transparent" points="-4,4 -4,-616 1163.5,-616 1163.5,4 -4,4"/>
<!-- 0 -->
<g id="node1" class="node">
<title>0</title>
<path fill="none" stroke="#d88d56" stroke-width="2" d="M532.5,-36C532.5,-36 502.5,-36 502.5,-36 496.5,-36 490.5,-30 490.5,-24 490.5,-24 490.5,-12 490.5,-12 490.5,-6 496.5,0 502.5,0 502.5,0 532.5,0 532.5,0 538.5,0 544.5,-6 544.5,-12 544.5,-12 544.5,-24 544.5,-24 544.5,-30 538.5,-36 532.5,-36"/>
<text text-anchor="middle" x="517.5" y="-15.5" font-family="sans" font-size="10.00" fill="#000000">all</text>
</g>
<!-- 1 -->
<g id="node2" class="node">
<title>1</title>
<path fill="none" stroke="#56c1d8" stroke-width="2" stroke-dasharray="5,2" d="M47,-108C47,-108 12,-108 12,-108 6,-108 0,-102 0,-96 0,-96 0,-84 0,-84 0,-78 6,-72 12,-72 12,-72 47,-72 47,-72 53,-72 59,-78 59,-84 59,-84 59,-96 59,-96 59,-102 53,-108 47,-108"/>
<text text-anchor="middle" x="29.5" y="-87.5" font-family="sans" font-size="10.00" fill="#000000">indexing</text>
</g>
<!-- 1&#45;&gt;0 -->
<g id="edge1" class="edge">
<title>1&#45;&gt;0</title>
<path fill="none" stroke="#c0c0c0" stroke-width="2" d="M59.4341,-76.5174C64.0755,-74.7894 68.8674,-73.206 73.5,-72 220.81,-33.6514 402.8611,-22.3696 480.0712,-19.1883"/>
<polygon fill="#c0c0c0" stroke="#c0c0c0" stroke-width="2" points="480.3995,-22.6783 490.2555,-18.7912 480.1267,-15.6836 480.3995,-22.6783"/>
</g>
<!-- 2 -->
<g id="node3" class="node">
<title>2</title>
<path fill="none" stroke="#bed856" stroke-width="2" d="M256.5,-612C256.5,-612 152.5,-612 152.5,-612 146.5,-612 140.5,-606 140.5,-600 140.5,-600 140.5,-588 140.5,-588 140.5,-582 146.5,-576 152.5,-576 152.5,-576 256.5,-576 256.5,-576 262.5,-576 268.5,-582 268.5,-588 268.5,-588 268.5,-600 268.5,-600 268.5,-606 262.5,-612 256.5,-612"/>
<text text-anchor="middle" x="204.5" y="-597" font-family="sans" font-size="10.00" fill="#000000">trimming</text>
<text text-anchor="middle" x="204.5" y="-586" font-family="sans" font-size="10.00" fill="#000000">SAMPLES: SRR2584866</text>
</g>
<!-- 2&#45;&gt;0 -->
<g id="edge2" class="edge">
<title>2&#45;&gt;0</title>
<path fill="none" stroke="#c0c0c0" stroke-width="2" d="M164.36,-575.77C148.5553,-566.8999 131.3819,-554.8987 119.5,-540 93.0301,-506.8094 87.5,-492.4532 87.5,-450 87.5,-450 87.5,-450 87.5,-162 87.5,-107.5869 122.4923,-97.6135 170.5,-72 223.6728,-43.6308 401.6693,-26.8733 479.9819,-20.7122"/>
<polygon fill="#c0c0c0" stroke="#c0c0c0" stroke-width="2" points="480.6459,-24.1715 490.3472,-19.9131 480.1077,-17.1922 480.6459,-24.1715"/>
</g>
<!-- 5 -->
<g id="node6" class="node">
<title>5</title>
<path fill="none" stroke="#568ad8" stroke-width="2" d="M268.5,-540C268.5,-540 140.5,-540 140.5,-540 134.5,-540 128.5,-534 128.5,-528 128.5,-528 128.5,-516 128.5,-516 128.5,-510 134.5,-504 140.5,-504 140.5,-504 268.5,-504 268.5,-504 274.5,-504 280.5,-510 280.5,-516 280.5,-516 280.5,-528 280.5,-528 280.5,-534 274.5,-540 268.5,-540"/>
<text text-anchor="middle" x="204.5" y="-525" font-family="sans" font-size="10.00" fill="#000000">gun_zipping</text>
<text text-anchor="middle" x="204.5" y="-514" font-family="sans" font-size="10.00" fill="#000000">G_SAMPLES: SRR2584866_1</text>
</g>
<!-- 2&#45;&gt;5 -->
<g id="edge14" class="edge">
<title>2&#45;&gt;5</title>
<path fill="none" stroke="#c0c0c0" stroke-width="2" d="M204.5,-575.8314C204.5,-568.131 204.5,-558.9743 204.5,-550.4166"/>
<polygon fill="#c0c0c0" stroke="#c0c0c0" stroke-width="2" points="208.0001,-550.4132 204.5,-540.4133 201.0001,-550.4133 208.0001,-550.4132"/>
</g>
<!-- 6 -->
<g id="node7" class="node">
<title>6</title>
<path fill="none" stroke="#568ad8" stroke-width="2" d="M439.5,-468C439.5,-468 311.5,-468 311.5,-468 305.5,-468 299.5,-462 299.5,-456 299.5,-456 299.5,-444 299.5,-444 299.5,-438 305.5,-432 311.5,-432 311.5,-432 439.5,-432 439.5,-432 445.5,-432 451.5,-438 451.5,-444 451.5,-444 451.5,-456 451.5,-456 451.5,-462 445.5,-468 439.5,-468"/>
<text text-anchor="middle" x="375.5" y="-453" font-family="sans" font-size="10.00" fill="#000000">gun_zipping</text>
<text text-anchor="middle" x="375.5" y="-442" font-family="sans" font-size="10.00" fill="#000000">G_SAMPLES: SRR2584866_2</text>
</g>
<!-- 2&#45;&gt;6 -->
<g id="edge15" class="edge">
<title>2&#45;&gt;6</title>
<path fill="none" stroke="#c0c0c0" stroke-width="2" d="M236.8382,-575.9811C253.2612,-566.2149 273.1449,-553.4174 289.5,-540 313.3304,-520.45 337.3014,-494.7484 353.8595,-475.8178"/>
<polygon fill="#c0c0c0" stroke="#c0c0c0" stroke-width="2" points="356.5895,-478.0117 360.48,-468.157 351.2932,-473.4346 356.5895,-478.0117"/>
</g>
<!-- 3 -->
<g id="node4" class="node">
<title>3</title>
<path fill="none" stroke="#bed856" stroke-width="2" d="M645.5,-612C645.5,-612 541.5,-612 541.5,-612 535.5,-612 529.5,-606 529.5,-600 529.5,-600 529.5,-588 529.5,-588 529.5,-582 535.5,-576 541.5,-576 541.5,-576 645.5,-576 645.5,-576 651.5,-576 657.5,-582 657.5,-588 657.5,-588 657.5,-600 657.5,-600 657.5,-606 651.5,-612 645.5,-612"/>
<text text-anchor="middle" x="593.5" y="-597" font-family="sans" font-size="10.00" fill="#000000">trimming</text>
<text text-anchor="middle" x="593.5" y="-586" font-family="sans" font-size="10.00" fill="#000000">SAMPLES: SRR2584863</text>
</g>
<!-- 3&#45;&gt;0 -->
<g id="edge3" class="edge">
<title>3&#45;&gt;0</title>
<path fill="none" stroke="#c0c0c0" stroke-width="2" d="M553.1384,-575.944C537.298,-567.102 520.1579,-555.0747 508.5,-540 482.791,-506.7559 479.5,-492.0253 479.5,-450 479.5,-450 479.5,-450 479.5,-162 479.5,-120.3681 494.5328,-74.14 505.6881,-45.567"/>
<polygon fill="#c0c0c0" stroke="#c0c0c0" stroke-width="2" points="508.9578,-46.817 509.4412,-36.2332 502.4632,-44.2055 508.9578,-46.817"/>
</g>
<!-- 7 -->
<g id="node8" class="node">
<title>7</title>
<path fill="none" stroke="#568ad8" stroke-width="2" d="M657.5,-540C657.5,-540 529.5,-540 529.5,-540 523.5,-540 517.5,-534 517.5,-528 517.5,-528 517.5,-516 517.5,-516 517.5,-510 523.5,-504 529.5,-504 529.5,-504 657.5,-504 657.5,-504 663.5,-504 669.5,-510 669.5,-516 669.5,-516 669.5,-528 669.5,-528 669.5,-534 663.5,-540 657.5,-540"/>
<text text-anchor="middle" x="593.5" y="-525" font-family="sans" font-size="10.00" fill="#000000">gun_zipping</text>
<text text-anchor="middle" x="593.5" y="-514" font-family="sans" font-size="10.00" fill="#000000">G_SAMPLES: SRR2584863_1</text>
</g>
<!-- 3&#45;&gt;7 -->
<g id="edge16" class="edge">
<title>3&#45;&gt;7</title>
<path fill="none" stroke="#c0c0c0" stroke-width="2" d="M593.5,-575.8314C593.5,-568.131 593.5,-558.9743 593.5,-550.4166"/>
<polygon fill="#c0c0c0" stroke="#c0c0c0" stroke-width="2" points="597.0001,-550.4132 593.5,-540.4133 590.0001,-550.4133 597.0001,-550.4132"/>
</g>
<!-- 8 -->
<g id="node9" class="node">
<title>8</title>
<path fill="none" stroke="#568ad8" stroke-width="2" d="M799.5,-396C799.5,-396 671.5,-396 671.5,-396 665.5,-396 659.5,-390 659.5,-384 659.5,-384 659.5,-372 659.5,-372 659.5,-366 665.5,-360 671.5,-360 671.5,-360 799.5,-360 799.5,-360 805.5,-360 811.5,-366 811.5,-372 811.5,-372 811.5,-384 811.5,-384 811.5,-390 805.5,-396 799.5,-396"/>
<text text-anchor="middle" x="735.5" y="-381" font-family="sans" font-size="10.00" fill="#000000">gun_zipping</text>
<text text-anchor="middle" x="735.5" y="-370" font-family="sans" font-size="10.00" fill="#000000">G_SAMPLES: SRR2584863_2</text>
</g>
<!-- 3&#45;&gt;8 -->
<g id="edge17" class="edge">
<title>3&#45;&gt;8</title>
<path fill="none" stroke="#c0c0c0" stroke-width="2" d="M633.6643,-575.7893C649.4729,-566.9223 666.6426,-554.9183 678.5,-540 710.3595,-499.9163 725.1252,-440.7082 731.3939,-406.073"/>
<polygon fill="#c0c0c0" stroke="#c0c0c0" stroke-width="2" points="734.8534,-406.6061 733.0761,-396.1614 727.9521,-405.4347 734.8534,-406.6061"/>
</g>
<!-- 4 -->
<g id="node5" class="node">
<title>4</title>
<path fill="none" stroke="#bed856" stroke-width="2" d="M1007.5,-612C1007.5,-612 903.5,-612 903.5,-612 897.5,-612 891.5,-606 891.5,-600 891.5,-600 891.5,-588 891.5,-588 891.5,-582 897.5,-576 903.5,-576 903.5,-576 1007.5,-576 1007.5,-576 1013.5,-576 1019.5,-582 1019.5,-588 1019.5,-588 1019.5,-600 1019.5,-600 1019.5,-606 1013.5,-612 1007.5,-612"/>
<text text-anchor="middle" x="955.5" y="-597" font-family="sans" font-size="10.00" fill="#000000">trimming</text>
<text text-anchor="middle" x="955.5" y="-586" font-family="sans" font-size="10.00" fill="#000000">SAMPLES: SRR2589044</text>
</g>
<!-- 4&#45;&gt;0 -->
<g id="edge4" class="edge">
<title>4&#45;&gt;0</title>
<path fill="none" stroke="#c0c0c0" stroke-width="2" d="M915.2869,-575.828C899.4704,-566.9672 882.308,-554.9574 870.5,-540 844.2857,-506.794 839.5,-492.3063 839.5,-450 839.5,-450 839.5,-450 839.5,-162 839.5,-100.2009 639.3502,-46.3393 554.649,-26.3126"/>
<polygon fill="#c0c0c0" stroke="#c0c0c0" stroke-width="2" points="555.2098,-22.8495 544.676,-23.9851 553.6189,-29.6663 555.2098,-22.8495"/>
</g>
<!-- 9 -->
<g id="node10" class="node">
<title>9</title>
<path fill="none" stroke="#568ad8" stroke-width="2" d="M1019.5,-540C1019.5,-540 891.5,-540 891.5,-540 885.5,-540 879.5,-534 879.5,-528 879.5,-528 879.5,-516 879.5,-516 879.5,-510 885.5,-504 891.5,-504 891.5,-504 1019.5,-504 1019.5,-504 1025.5,-504 1031.5,-510 1031.5,-516 1031.5,-516 1031.5,-528 1031.5,-528 1031.5,-534 1025.5,-540 1019.5,-540"/>
<text text-anchor="middle" x="955.5" y="-525" font-family="sans" font-size="10.00" fill="#000000">gun_zipping</text>
<text text-anchor="middle" x="955.5" y="-514" font-family="sans" font-size="10.00" fill="#000000">G_SAMPLES: SRR2589044_1</text>
</g>
<!-- 4&#45;&gt;9 -->
<g id="edge18" class="edge">
<title>4&#45;&gt;9</title>
<path fill="none" stroke="#c0c0c0" stroke-width="2" d="M955.5,-575.8314C955.5,-568.131 955.5,-558.9743 955.5,-550.4166"/>
<polygon fill="#c0c0c0" stroke="#c0c0c0" stroke-width="2" points="959.0001,-550.4132 955.5,-540.4133 952.0001,-550.4133 959.0001,-550.4132"/>
</g>
<!-- 10 -->
<g id="node11" class="node">
<title>10</title>
<path fill="none" stroke="#568ad8" stroke-width="2" d="M1147.5,-324C1147.5,-324 1019.5,-324 1019.5,-324 1013.5,-324 1007.5,-318 1007.5,-312 1007.5,-312 1007.5,-300 1007.5,-300 1007.5,-294 1013.5,-288 1019.5,-288 1019.5,-288 1147.5,-288 1147.5,-288 1153.5,-288 1159.5,-294 1159.5,-300 1159.5,-300 1159.5,-312 1159.5,-312 1159.5,-318 1153.5,-324 1147.5,-324"/>
<text text-anchor="middle" x="1083.5" y="-309" font-family="sans" font-size="10.00" fill="#000000">gun_zipping</text>
<text text-anchor="middle" x="1083.5" y="-298" font-family="sans" font-size="10.00" fill="#000000">G_SAMPLES: SRR2589044_2</text>
</g>
<!-- 4&#45;&gt;10 -->
<g id="edge19" class="edge">
<title>4&#45;&gt;10</title>
<path fill="none" stroke="#c0c0c0" stroke-width="2" d="M998.1777,-575.9332C1013.7852,-567.2642 1030.139,-555.3651 1040.5,-540 1083.5628,-476.1388 1086.7057,-381.1545 1085.2366,-334.2724"/>
<polygon fill="#c0c0c0" stroke="#c0c0c0" stroke-width="2" points="1088.7317,-334.0785 1084.826,-324.2299 1081.7375,-334.3645 1088.7317,-334.0785"/>
</g>
<!-- 5&#45;&gt;0 -->
<g id="edge5" class="edge">
<title>5&#45;&gt;0</title>
<path fill="none" stroke="#c0c0c0" stroke-width="2" d="M177.5791,-503.85C165.7007,-494.4909 152.6201,-482.0832 144.5,-468 124.0797,-432.5836 125.5,-418.8816 125.5,-378 125.5,-378 125.5,-378 125.5,-162 125.5,-86.8877 382.2949,-39.0307 480.1976,-23.5147"/>
<polygon fill="#c0c0c0" stroke="#c0c0c0" stroke-width="2" points="480.9053,-26.9468 490.2465,-21.9477 479.8267,-20.0303 480.9053,-26.9468"/>
</g>
<!-- 28 -->
<g id="node29" class="node">
<title>28</title>
<path fill="none" stroke="#56d88a" stroke-width="2" d="M269.5,-468C269.5,-468 165.5,-468 165.5,-468 159.5,-468 153.5,-462 153.5,-456 153.5,-456 153.5,-444 153.5,-444 153.5,-438 159.5,-432 165.5,-432 165.5,-432 269.5,-432 269.5,-432 275.5,-432 281.5,-438 281.5,-444 281.5,-444 281.5,-456 281.5,-456 281.5,-462 275.5,-468 269.5,-468"/>
<text text-anchor="middle" x="217.5" y="-453" font-family="sans" font-size="10.00" fill="#000000">align_reads</text>
<text text-anchor="middle" x="217.5" y="-442" font-family="sans" font-size="10.00" fill="#000000">SAMPLES: SRR2584866</text>
</g>
<!-- 5&#45;&gt;28 -->
<g id="edge37" class="edge">
<title>5&#45;&gt;28</title>
<path fill="none" stroke="#c0c0c0" stroke-width="2" d="M207.7804,-503.8314C209.1708,-496.131 210.8241,-486.9743 212.3692,-478.4166"/>
<polygon fill="#c0c0c0" stroke="#c0c0c0" stroke-width="2" points="215.8428,-478.8761 214.1754,-468.4133 208.9542,-477.6322 215.8428,-478.8761"/>
</g>
<!-- 6&#45;&gt;0 -->
<g id="edge6" class="edge">
<title>6&#45;&gt;0</title>
<path fill="none" stroke="#c0c0c0" stroke-width="2" d="M382.4985,-431.6679C392.1853,-404.6028 408.5,-352.1665 408.5,-306 408.5,-306 408.5,-306 408.5,-162 408.5,-111.9186 450.9327,-68.274 482.8479,-42.5303"/>
<polygon fill="#c0c0c0" stroke="#c0c0c0" stroke-width="2" points="485.393,-44.9832 491.1141,-36.0658 481.0808,-39.4691 485.393,-44.9832"/>
</g>
<!-- 7&#45;&gt;0 -->
<g id="edge7" class="edge">
<title>7&#45;&gt;0</title>
<path fill="none" stroke="#c0c0c0" stroke-width="2" d="M568.2243,-503.8373C556.8646,-494.3929 544.2892,-481.9174 536.5,-468 516.534,-432.3255 517.5,-418.8816 517.5,-378 517.5,-378 517.5,-378 517.5,-162 517.5,-121.876 517.5,-75.4631 517.5,-46.4177"/>
<polygon fill="#c0c0c0" stroke="#c0c0c0" stroke-width="2" points="521.0001,-46.1853 517.5,-36.1854 514.0001,-46.1854 521.0001,-46.1853"/>
</g>
<!-- 27 -->
<g id="node28" class="node">
<title>27</title>
<path fill="none" stroke="#56d88a" stroke-width="2" d="M661.5,-468C661.5,-468 557.5,-468 557.5,-468 551.5,-468 545.5,-462 545.5,-456 545.5,-456 545.5,-444 545.5,-444 545.5,-438 551.5,-432 557.5,-432 557.5,-432 661.5,-432 661.5,-432 667.5,-432 673.5,-438 673.5,-444 673.5,-444 673.5,-456 673.5,-456 673.5,-462 667.5,-468 661.5,-468"/>
<text text-anchor="middle" x="609.5" y="-453" font-family="sans" font-size="10.00" fill="#000000">align_reads</text>
<text text-anchor="middle" x="609.5" y="-442" font-family="sans" font-size="10.00" fill="#000000">SAMPLES: SRR2584863</text>
</g>
<!-- 7&#45;&gt;27 -->
<g id="edge36" class="edge">
<title>7&#45;&gt;27</title>
<path fill="none" stroke="#c0c0c0" stroke-width="2" d="M597.5375,-503.8314C599.2487,-496.131 601.2835,-486.9743 603.1852,-478.4166"/>
<polygon fill="#c0c0c0" stroke="#c0c0c0" stroke-width="2" points="606.6554,-478.9344 605.4082,-468.4133 599.8221,-477.4159 606.6554,-478.9344"/>
</g>
<!-- 8&#45;&gt;0 -->
<g id="edge8" class="edge">
<title>8&#45;&gt;0</title>
<path fill="none" stroke="#c0c0c0" stroke-width="2" d="M733.2208,-359.8486C729.9988,-332.5755 724.5,-279.3818 724.5,-234 724.5,-234 724.5,-234 724.5,-162 724.5,-80.0601 613.8449,-40.9618 554.3434,-25.861"/>
<polygon fill="#c0c0c0" stroke="#c0c0c0" stroke-width="2" points="555.106,-22.4444 544.5616,-23.4774 553.4487,-29.2455 555.106,-22.4444"/>
</g>
<!-- 9&#45;&gt;0 -->
<g id="edge9" class="edge">
<title>9&#45;&gt;0</title>
<path fill="none" stroke="#c0c0c0" stroke-width="2" d="M929.0299,-503.7641C917.35,-494.3863 904.4871,-481.9876 896.5,-468 876.228,-432.4985 877.5,-418.8816 877.5,-378 877.5,-378 877.5,-378 877.5,-162 877.5,-120.6022 884.2165,-99.7539 853.5,-72 810.1661,-32.8457 633.3723,-21.9611 555.0973,-19.0342"/>
<polygon fill="#c0c0c0" stroke="#c0c0c0" stroke-width="2" points="554.8465,-15.5234 544.7303,-18.6719 554.6019,-22.5191 554.8465,-15.5234"/>
</g>
<!-- 26 -->
<g id="node27" class="node">
<title>26</title>
<path fill="none" stroke="#56d88a" stroke-width="2" d="M1021.5,-468C1021.5,-468 917.5,-468 917.5,-468 911.5,-468 905.5,-462 905.5,-456 905.5,-456 905.5,-444 905.5,-444 905.5,-438 911.5,-432 917.5,-432 917.5,-432 1021.5,-432 1021.5,-432 1027.5,-432 1033.5,-438 1033.5,-444 1033.5,-444 1033.5,-456 1033.5,-456 1033.5,-462 1027.5,-468 1021.5,-468"/>
<text text-anchor="middle" x="969.5" y="-453" font-family="sans" font-size="10.00" fill="#000000">align_reads</text>
<text text-anchor="middle" x="969.5" y="-442" font-family="sans" font-size="10.00" fill="#000000">SAMPLES: SRR2589044</text>
</g>
<!-- 9&#45;&gt;26 -->
<g id="edge35" class="edge">
<title>9&#45;&gt;26</title>
<path fill="none" stroke="#c0c0c0" stroke-width="2" d="M959.0328,-503.8314C960.5301,-496.131 962.3105,-486.9743 963.9745,-478.4166"/>
<polygon fill="#c0c0c0" stroke="#c0c0c0" stroke-width="2" points="967.4465,-478.8975 965.9196,-468.4133 960.5752,-477.5614 967.4465,-478.8975"/>
</g>
<!-- 10&#45;&gt;0 -->
<g id="edge10" class="edge">
<title>10&#45;&gt;0</title>
<path fill="none" stroke="#c0c0c0" stroke-width="2" d="M1085.053,-287.9013C1087.7968,-242.8658 1087.8424,-125.5468 1020.5,-72 984.1999,-43.1362 665.3916,-25.1419 554.9608,-19.7295"/>
<polygon fill="#c0c0c0" stroke="#c0c0c0" stroke-width="2" points="554.7975,-16.2176 544.6402,-19.2307 554.4596,-23.2095 554.7975,-16.2176"/>
</g>
<!-- 11 -->
<g id="node12" class="node">
<title>11</title>
<path fill="none" stroke="#d85656" stroke-width="2" d="M999.5,-108C999.5,-108 925.5,-108 925.5,-108 919.5,-108 913.5,-102 913.5,-96 913.5,-96 913.5,-84 913.5,-84 913.5,-78 919.5,-72 925.5,-72 925.5,-72 999.5,-72 999.5,-72 1005.5,-72 1011.5,-78 1011.5,-84 1011.5,-84 1011.5,-96 1011.5,-96 1011.5,-102 1005.5,-108 999.5,-108"/>
<text text-anchor="middle" x="962.5" y="-87.5" font-family="sans" font-size="10.00" fill="#000000">Filter_and_report</text>
</g>
<!-- 11&#45;&gt;0 -->
<g id="edge11" class="edge">
<title>11&#45;&gt;0</title>
<path fill="none" stroke="#c0c0c0" stroke-width="2" d="M913.3807,-76.8366C906.0733,-75.0852 898.6098,-73.4105 891.5,-72 769.3359,-47.7645 622.6837,-29.7774 555.0455,-22.0994"/>
<polygon fill="#c0c0c0" stroke="#c0c0c0" stroke-width="2" points="555.2129,-18.5962 544.8843,-20.9562 554.4303,-25.5523 555.2129,-18.5962"/>
</g>
<!-- 12 -->
<g id="node13" class="node">
<title>12</title>
<path fill="none" stroke="#d85656" stroke-width="2" d="M639.5,-108C639.5,-108 565.5,-108 565.5,-108 559.5,-108 553.5,-102 553.5,-96 553.5,-96 553.5,-84 553.5,-84 553.5,-78 559.5,-72 565.5,-72 565.5,-72 639.5,-72 639.5,-72 645.5,-72 651.5,-78 651.5,-84 651.5,-84 651.5,-96 651.5,-96 651.5,-102 645.5,-108 639.5,-108"/>
<text text-anchor="middle" x="602.5" y="-87.5" font-family="sans" font-size="10.00" fill="#000000">Filter_and_report</text>
</g>
<!-- 12&#45;&gt;0 -->
<g id="edge12" class="edge">
<title>12&#45;&gt;0</title>
<path fill="none" stroke="#c0c0c0" stroke-width="2" d="M581.0509,-71.8314C570.6822,-63.0485 558.0771,-52.3712 546.8354,-42.8489"/>
<polygon fill="#c0c0c0" stroke="#c0c0c0" stroke-width="2" points="548.8349,-39.9556 538.9422,-36.1628 544.3105,-45.297 548.8349,-39.9556"/>
</g>
<!-- 13 -->
<g id="node14" class="node">
<title>13</title>
<path fill="none" stroke="#d85656" stroke-width="2" d="M358.5,-108C358.5,-108 284.5,-108 284.5,-108 278.5,-108 272.5,-102 272.5,-96 272.5,-96 272.5,-84 272.5,-84 272.5,-78 278.5,-72 284.5,-72 284.5,-72 358.5,-72 358.5,-72 364.5,-72 370.5,-78 370.5,-84 370.5,-84 370.5,-96 370.5,-96 370.5,-102 364.5,-108 358.5,-108"/>
<text text-anchor="middle" x="321.5" y="-87.5" font-family="sans" font-size="10.00" fill="#000000">Filter_and_report</text>
</g>
<!-- 13&#45;&gt;0 -->
<g id="edge13" class="edge">
<title>13&#45;&gt;0</title>
<path fill="none" stroke="#c0c0c0" stroke-width="2" d="M370.7061,-71.9243C404.8818,-59.3699 449.6866,-42.911 480.7654,-31.4943"/>
<polygon fill="#c0c0c0" stroke="#c0c0c0" stroke-width="2" points="482.163,-34.7097 490.3428,-27.9761 479.7492,-28.139 482.163,-34.7097"/>
</g>
<!-- 14 -->
<g id="node15" class="node">
<title>14</title>
<path fill="none" stroke="#56d8c1" stroke-width="2" d="M1024.5,-180C1024.5,-180 920.5,-180 920.5,-180 914.5,-180 908.5,-174 908.5,-168 908.5,-168 908.5,-156 908.5,-156 908.5,-150 914.5,-144 920.5,-144 920.5,-144 1024.5,-144 1024.5,-144 1030.5,-144 1036.5,-150 1036.5,-156 1036.5,-156 1036.5,-168 1036.5,-168 1036.5,-174 1030.5,-180 1024.5,-180"/>
<text text-anchor="middle" x="972.5" y="-159.5" font-family="sans" font-size="10.00" fill="#000000">detect_polymorphisms</text>
</g>
<!-- 14&#45;&gt;11 -->
<g id="edge20" class="edge">
<title>14&#45;&gt;11</title>
<path fill="none" stroke="#c0c0c0" stroke-width="2" d="M969.9766,-143.8314C968.9071,-136.131 967.6353,-126.9743 966.4468,-118.4166"/>
<polygon fill="#c0c0c0" stroke="#c0c0c0" stroke-width="2" points="969.8999,-117.8367 965.0574,-108.4133 962.9664,-118.7997 969.8999,-117.8367"/>
</g>
<!-- 15 -->
<g id="node16" class="node">
<title>15</title>
<path fill="none" stroke="#56d8c1" stroke-width="2" d="M664.5,-180C664.5,-180 560.5,-180 560.5,-180 554.5,-180 548.5,-174 548.5,-168 548.5,-168 548.5,-156 548.5,-156 548.5,-150 554.5,-144 560.5,-144 560.5,-144 664.5,-144 664.5,-144 670.5,-144 676.5,-150 676.5,-156 676.5,-156 676.5,-168 676.5,-168 676.5,-174 670.5,-180 664.5,-180"/>
<text text-anchor="middle" x="612.5" y="-159.5" font-family="sans" font-size="10.00" fill="#000000">detect_polymorphisms</text>
</g>
<!-- 15&#45;&gt;12 -->
<g id="edge21" class="edge">
<title>15&#45;&gt;12</title>
<path fill="none" stroke="#c0c0c0" stroke-width="2" d="M609.9766,-143.8314C608.9071,-136.131 607.6353,-126.9743 606.4468,-118.4166"/>
<polygon fill="#c0c0c0" stroke="#c0c0c0" stroke-width="2" points="609.8999,-117.8367 605.0574,-108.4133 602.9664,-118.7997 609.8999,-117.8367"/>
</g>
<!-- 16 -->
<g id="node17" class="node">
<title>16</title>
<path fill="none" stroke="#56d8c1" stroke-width="2" d="M343.5,-180C343.5,-180 239.5,-180 239.5,-180 233.5,-180 227.5,-174 227.5,-168 227.5,-168 227.5,-156 227.5,-156 227.5,-150 233.5,-144 239.5,-144 239.5,-144 343.5,-144 343.5,-144 349.5,-144 355.5,-150 355.5,-156 355.5,-156 355.5,-168 355.5,-168 355.5,-174 349.5,-180 343.5,-180"/>
<text text-anchor="middle" x="291.5" y="-159.5" font-family="sans" font-size="10.00" fill="#000000">detect_polymorphisms</text>
</g>
<!-- 16&#45;&gt;13 -->
<g id="edge22" class="edge">
<title>16&#45;&gt;13</title>
<path fill="none" stroke="#c0c0c0" stroke-width="2" d="M299.0703,-143.8314C302.3493,-135.9617 306.262,-126.5712 309.8945,-117.8533"/>
<polygon fill="#c0c0c0" stroke="#c0c0c0" stroke-width="2" points="313.2124,-118.9902 313.8278,-108.4133 306.7508,-116.2979 313.2124,-118.9902"/>
</g>
<!-- 17 -->
<g id="node18" class="node">
<title>17</title>
<path fill="none" stroke="#59d856" stroke-width="2" d="M1033,-252C1033,-252 918,-252 918,-252 912,-252 906,-246 906,-240 906,-240 906,-228 906,-228 906,-222 912,-216 918,-216 918,-216 1033,-216 1033,-216 1039,-216 1045,-222 1045,-228 1045,-228 1045,-240 1045,-240 1045,-246 1039,-252 1033,-252"/>
<text text-anchor="middle" x="975.5" y="-231.5" font-family="sans" font-size="10.00" fill="#000000">variant_calling_first_step</text>
</g>
<!-- 17&#45;&gt;14 -->
<g id="edge23" class="edge">
<title>17&#45;&gt;14</title>
<path fill="none" stroke="#c0c0c0" stroke-width="2" d="M974.743,-215.8314C974.4221,-208.131 974.0406,-198.9743 973.684,-190.4166"/>
<polygon fill="#c0c0c0" stroke="#c0c0c0" stroke-width="2" points="977.1806,-190.2589 973.2672,-180.4133 970.1867,-190.5503 977.1806,-190.2589"/>
</g>
<!-- 18 -->
<g id="node19" class="node">
<title>18</title>
<path fill="none" stroke="#59d856" stroke-width="2" d="M673,-252C673,-252 558,-252 558,-252 552,-252 546,-246 546,-240 546,-240 546,-228 546,-228 546,-222 552,-216 558,-216 558,-216 673,-216 673,-216 679,-216 685,-222 685,-228 685,-228 685,-240 685,-240 685,-246 679,-252 673,-252"/>
<text text-anchor="middle" x="615.5" y="-231.5" font-family="sans" font-size="10.00" fill="#000000">variant_calling_first_step</text>
</g>
<!-- 18&#45;&gt;15 -->
<g id="edge24" class="edge">
<title>18&#45;&gt;15</title>
<path fill="none" stroke="#c0c0c0" stroke-width="2" d="M614.743,-215.8314C614.4221,-208.131 614.0406,-198.9743 613.684,-190.4166"/>
<polygon fill="#c0c0c0" stroke="#c0c0c0" stroke-width="2" points="617.1806,-190.2589 613.2672,-180.4133 610.1867,-190.5503 617.1806,-190.2589"/>
</g>
<!-- 19 -->
<g id="node20" class="node">
<title>19</title>
<path fill="none" stroke="#59d856" stroke-width="2" d="M325,-252C325,-252 210,-252 210,-252 204,-252 198,-246 198,-240 198,-240 198,-228 198,-228 198,-222 204,-216 210,-216 210,-216 325,-216 325,-216 331,-216 337,-222 337,-228 337,-228 337,-240 337,-240 337,-246 331,-252 325,-252"/>
<text text-anchor="middle" x="267.5" y="-231.5" font-family="sans" font-size="10.00" fill="#000000">variant_calling_first_step</text>
</g>
<!-- 19&#45;&gt;16 -->
<g id="edge25" class="edge">
<title>19&#45;&gt;16</title>
<path fill="none" stroke="#c0c0c0" stroke-width="2" d="M273.5562,-215.8314C276.1512,-208.0463 279.2424,-198.7729 282.1218,-190.1347"/>
<polygon fill="#c0c0c0" stroke="#c0c0c0" stroke-width="2" points="285.5203,-191.0069 285.3622,-180.4133 278.8795,-188.7933 285.5203,-191.0069"/>
</g>
<!-- 20 -->
<g id="node21" class="node">
<title>20</title>
<path fill="none" stroke="#d8bc56" stroke-width="2" d="M977.5,-324C977.5,-324 947.5,-324 947.5,-324 941.5,-324 935.5,-318 935.5,-312 935.5,-312 935.5,-300 935.5,-300 935.5,-294 941.5,-288 947.5,-288 947.5,-288 977.5,-288 977.5,-288 983.5,-288 989.5,-294 989.5,-300 989.5,-300 989.5,-312 989.5,-312 989.5,-318 983.5,-324 977.5,-324"/>
<text text-anchor="middle" x="962.5" y="-303.5" font-family="sans" font-size="10.00" fill="#000000">sorting</text>
</g>
<!-- 20&#45;&gt;17 -->
<g id="edge26" class="edge">
<title>20&#45;&gt;17</title>
<path fill="none" stroke="#c0c0c0" stroke-width="2" d="M965.7804,-287.8314C967.1708,-280.131 968.8241,-270.9743 970.3692,-262.4166"/>
<polygon fill="#c0c0c0" stroke="#c0c0c0" stroke-width="2" points="973.8428,-262.8761 972.1754,-252.4133 966.9542,-261.6322 973.8428,-262.8761"/>
</g>
<!-- 21 -->
<g id="node22" class="node">
<title>21</title>
<path fill="none" stroke="#d8bc56" stroke-width="2" d="M619.5,-324C619.5,-324 589.5,-324 589.5,-324 583.5,-324 577.5,-318 577.5,-312 577.5,-312 577.5,-300 577.5,-300 577.5,-294 583.5,-288 589.5,-288 589.5,-288 619.5,-288 619.5,-288 625.5,-288 631.5,-294 631.5,-300 631.5,-300 631.5,-312 631.5,-312 631.5,-318 625.5,-324 619.5,-324"/>
<text text-anchor="middle" x="604.5" y="-303.5" font-family="sans" font-size="10.00" fill="#000000">sorting</text>
</g>
<!-- 21&#45;&gt;18 -->
<g id="edge27" class="edge">
<title>21&#45;&gt;18</title>
<path fill="none" stroke="#c0c0c0" stroke-width="2" d="M607.2758,-287.8314C608.4522,-280.131 609.8511,-270.9743 611.1586,-262.4166"/>
<polygon fill="#c0c0c0" stroke="#c0c0c0" stroke-width="2" points="614.6364,-262.8272 612.6869,-252.4133 607.7167,-261.7699 614.6364,-262.8272"/>
</g>
<!-- 22 -->
<g id="node23" class="node">
<title>22</title>
<path fill="none" stroke="#d8bc56" stroke-width="2" d="M270.5,-324C270.5,-324 240.5,-324 240.5,-324 234.5,-324 228.5,-318 228.5,-312 228.5,-312 228.5,-300 228.5,-300 228.5,-294 234.5,-288 240.5,-288 240.5,-288 270.5,-288 270.5,-288 276.5,-288 282.5,-294 282.5,-300 282.5,-300 282.5,-312 282.5,-312 282.5,-318 276.5,-324 270.5,-324"/>
<text text-anchor="middle" x="255.5" y="-303.5" font-family="sans" font-size="10.00" fill="#000000">sorting</text>
</g>
<!-- 22&#45;&gt;19 -->
<g id="edge28" class="edge">
<title>22&#45;&gt;19</title>
<path fill="none" stroke="#c0c0c0" stroke-width="2" d="M258.5281,-287.8314C259.8115,-280.131 261.3376,-270.9743 262.7639,-262.4166"/>
<polygon fill="#c0c0c0" stroke="#c0c0c0" stroke-width="2" points="266.2394,-262.8526 264.4311,-252.4133 259.3347,-261.7018 266.2394,-262.8526"/>
</g>
<!-- 23 -->
<g id="node24" class="node">
<title>23</title>
<path fill="none" stroke="#88d856" stroke-width="2" d="M1001,-396C1001,-396 930,-396 930,-396 924,-396 918,-390 918,-384 918,-384 918,-372 918,-372 918,-366 924,-360 930,-360 930,-360 1001,-360 1001,-360 1007,-360 1013,-366 1013,-372 1013,-372 1013,-384 1013,-384 1013,-390 1007,-396 1001,-396"/>
<text text-anchor="middle" x="965.5" y="-375.5" font-family="sans" font-size="10.00" fill="#000000">convert_to_sam</text>
</g>
<!-- 23&#45;&gt;20 -->
<g id="edge29" class="edge">
<title>23&#45;&gt;20</title>
<path fill="none" stroke="#c0c0c0" stroke-width="2" d="M964.743,-359.8314C964.4221,-352.131 964.0406,-342.9743 963.684,-334.4166"/>
<polygon fill="#c0c0c0" stroke="#c0c0c0" stroke-width="2" points="967.1806,-334.2589 963.2672,-324.4133 960.1867,-334.5503 967.1806,-334.2589"/>
</g>
<!-- 24 -->
<g id="node25" class="node">
<title>24</title>
<path fill="none" stroke="#88d856" stroke-width="2" d="M629,-396C629,-396 558,-396 558,-396 552,-396 546,-390 546,-384 546,-384 546,-372 546,-372 546,-366 552,-360 558,-360 558,-360 629,-360 629,-360 635,-360 641,-366 641,-372 641,-372 641,-384 641,-384 641,-390 635,-396 629,-396"/>
<text text-anchor="middle" x="593.5" y="-375.5" font-family="sans" font-size="10.00" fill="#000000">convert_to_sam</text>
</g>
<!-- 24&#45;&gt;21 -->
<g id="edge30" class="edge">
<title>24&#45;&gt;21</title>
<path fill="none" stroke="#c0c0c0" stroke-width="2" d="M596.2758,-359.8314C597.4522,-352.131 598.8511,-342.9743 600.1586,-334.4166"/>
<polygon fill="#c0c0c0" stroke="#c0c0c0" stroke-width="2" points="603.6364,-334.8272 601.6869,-324.4133 596.7167,-333.7699 603.6364,-334.8272"/>
</g>
<!-- 25 -->
<g id="node26" class="node">
<title>25</title>
<path fill="none" stroke="#88d856" stroke-width="2" d="M266,-396C266,-396 195,-396 195,-396 189,-396 183,-390 183,-384 183,-384 183,-372 183,-372 183,-366 189,-360 195,-360 195,-360 266,-360 266,-360 272,-360 278,-366 278,-372 278,-372 278,-384 278,-384 278,-390 272,-396 266,-396"/>
<text text-anchor="middle" x="230.5" y="-375.5" font-family="sans" font-size="10.00" fill="#000000">convert_to_sam</text>
</g>
<!-- 25&#45;&gt;22 -->
<g id="edge31" class="edge">
<title>25&#45;&gt;22</title>
<path fill="none" stroke="#c0c0c0" stroke-width="2" d="M236.8086,-359.8314C239.5117,-352.0463 242.7316,-342.7729 245.731,-334.1347"/>
<polygon fill="#c0c0c0" stroke="#c0c0c0" stroke-width="2" points="249.1327,-335.0081 249.1065,-324.4133 242.52,-332.7119 249.1327,-335.0081"/>
</g>
<!-- 26&#45;&gt;23 -->
<g id="edge32" class="edge">
<title>26&#45;&gt;23</title>
<path fill="none" stroke="#c0c0c0" stroke-width="2" d="M968.4906,-431.8314C968.0628,-424.131 967.5541,-414.9743 967.0787,-406.4166"/>
<polygon fill="#c0c0c0" stroke="#c0c0c0" stroke-width="2" points="970.5724,-406.2037 966.523,-396.4133 963.5831,-406.592 970.5724,-406.2037"/>
</g>
<!-- 27&#45;&gt;24 -->
<g id="edge33" class="edge">
<title>27&#45;&gt;24</title>
<path fill="none" stroke="#c0c0c0" stroke-width="2" d="M605.4625,-431.8314C603.7513,-424.131 601.7165,-414.9743 599.8148,-406.4166"/>
<polygon fill="#c0c0c0" stroke="#c0c0c0" stroke-width="2" points="603.1779,-405.4159 597.5918,-396.4133 596.3446,-406.9344 603.1779,-405.4159"/>
</g>
<!-- 28&#45;&gt;25 -->
<g id="edge34" class="edge">
<title>28&#45;&gt;25</title>
<path fill="none" stroke="#c0c0c0" stroke-width="2" d="M220.7804,-431.8314C222.1708,-424.131 223.8241,-414.9743 225.3692,-406.4166"/>
<polygon fill="#c0c0c0" stroke="#c0c0c0" stroke-width="2" points="228.8428,-406.8761 227.1754,-396.4133 221.9542,-405.6322 228.8428,-406.8761"/>
</g>
</g>
</svg>
