<?xml version="1.0" encoding="UTF-8" standalone="no"?>
<!DOCTYPE svg PUBLIC "-//W3C//DTD SVG 1.1//EN"
 "http://www.w3.org/Graphics/SVG/1.1/DTD/svg11.dtd">
<!-- Generated by graphviz version 2.40.1 (20161225.0304)
 -->
<!-- Title: snakemake_dag Pages: 1 -->
<svg width="477pt" height="553pt"
 viewBox="0.00 0.00 477.00 553.00" xmlns="http://www.w3.org/2000/svg" xmlns:xlink="http://www.w3.org/1999/xlink">
<g id="graph0" class="graph" transform="scale(1 1) rotate(0) translate(4 549)">
<title>snakemake_dag</title>
<polygon fill="#ffffff" stroke="transparent" points="-4,4 -4,-549 473,-549 473,4 -4,4"/>
<!-- 0 -->
<g id="node1" class="node">
<title>0</title>
<path fill="none" stroke="#d88d56" stroke-width="2" d="M199.5,-36C199.5,-36 169.5,-36 169.5,-36 163.5,-36 157.5,-30 157.5,-24 157.5,-24 157.5,-12 157.5,-12 157.5,-6 163.5,0 169.5,0 169.5,0 199.5,0 199.5,0 205.5,0 211.5,-6 211.5,-12 211.5,-12 211.5,-24 211.5,-24 211.5,-30 205.5,-36 199.5,-36"/>
<text text-anchor="middle" x="184.5" y="-15.5" font-family="sans" font-size="10.00" fill="#000000">all</text>
</g>
<!-- 1 -->
<g id="node2" class="node">
<title>1</title>
<path fill="none" stroke="#59d856" stroke-width="2" d="M47,-108C47,-108 12,-108 12,-108 6,-108 0,-102 0,-96 0,-96 0,-84 0,-84 0,-78 6,-72 12,-72 12,-72 47,-72 47,-72 53,-72 59,-78 59,-84 59,-84 59,-96 59,-96 59,-102 53,-108 47,-108"/>
<text text-anchor="middle" x="29.5" y="-87.5" font-family="sans" font-size="10.00" fill="#000000">indexing</text>
</g>
<!-- 1&#45;&gt;0 -->
<g id="edge1" class="edge">
<title>1&#45;&gt;0</title>
<path fill="none" stroke="#c0c0c0" stroke-width="2" d="M59.0192,-76.2879C84.3978,-64.4991 121.0937,-47.4533 148.2515,-34.838"/>
<polygon fill="#c0c0c0" stroke="#c0c0c0" stroke-width="2" points="149.8308,-37.9636 157.4256,-30.5765 146.8818,-31.6151 149.8308,-37.9636"/>
</g>
<!-- 2 -->
<g id="node3" class="node">
<title>2</title>
<path fill="none" stroke="#56c1d8" stroke-width="2" d="M163.5,-108C163.5,-108 89.5,-108 89.5,-108 83.5,-108 77.5,-102 77.5,-96 77.5,-96 77.5,-84 77.5,-84 77.5,-78 83.5,-72 89.5,-72 89.5,-72 163.5,-72 163.5,-72 169.5,-72 175.5,-78 175.5,-84 175.5,-84 175.5,-96 175.5,-96 175.5,-102 169.5,-108 163.5,-108"/>
<text text-anchor="middle" x="126.5" y="-87.5" font-family="sans" font-size="10.00" fill="#000000">Filter_and_report</text>
</g>
<!-- 2&#45;&gt;0 -->
<g id="edge2" class="edge">
<title>2&#45;&gt;0</title>
<path fill="none" stroke="#c0c0c0" stroke-width="2" d="M141.1358,-71.8314C147.8161,-63.5386 155.8568,-53.557 163.1904,-44.4533"/>
<polygon fill="#c0c0c0" stroke="#c0c0c0" stroke-width="2" points="166.1194,-46.3965 169.6671,-36.4133 160.6681,-42.0052 166.1194,-46.3965"/>
</g>
<!-- 3 -->
<g id="node4" class="node">
<title>3</title>
<path fill="none" stroke="#56c1d8" stroke-width="2" d="M279.5,-108C279.5,-108 205.5,-108 205.5,-108 199.5,-108 193.5,-102 193.5,-96 193.5,-96 193.5,-84 193.5,-84 193.5,-78 199.5,-72 205.5,-72 205.5,-72 279.5,-72 279.5,-72 285.5,-72 291.5,-78 291.5,-84 291.5,-84 291.5,-96 291.5,-96 291.5,-102 285.5,-108 279.5,-108"/>
<text text-anchor="middle" x="242.5" y="-87.5" font-family="sans" font-size="10.00" fill="#000000">Filter_and_report</text>
</g>
<!-- 3&#45;&gt;0 -->
<g id="edge3" class="edge">
<title>3&#45;&gt;0</title>
<path fill="none" stroke="#c0c0c0" stroke-width="2" d="M227.8642,-71.8314C221.1839,-63.5386 213.1432,-53.557 205.8096,-44.4533"/>
<polygon fill="#c0c0c0" stroke="#c0c0c0" stroke-width="2" points="208.3319,-42.0052 199.3329,-36.4133 202.8806,-46.3965 208.3319,-42.0052"/>
</g>
<!-- 4 -->
<g id="node5" class="node">
<title>4</title>
<path fill="none" stroke="#56c1d8" stroke-width="2" d="M410.5,-108C410.5,-108 336.5,-108 336.5,-108 330.5,-108 324.5,-102 324.5,-96 324.5,-96 324.5,-84 324.5,-84 324.5,-78 330.5,-72 336.5,-72 336.5,-72 410.5,-72 410.5,-72 416.5,-72 422.5,-78 422.5,-84 422.5,-84 422.5,-96 422.5,-96 422.5,-102 416.5,-108 410.5,-108"/>
<text text-anchor="middle" x="373.5" y="-87.5" font-family="sans" font-size="10.00" fill="#000000">Filter_and_report</text>
</g>
<!-- 4&#45;&gt;0 -->
<g id="edge4" class="edge">
<title>4&#45;&gt;0</title>
<path fill="none" stroke="#c0c0c0" stroke-width="2" d="M325.8073,-71.8314C293.3853,-59.4801 251.129,-43.3825 221.2997,-32.0189"/>
<polygon fill="#c0c0c0" stroke="#c0c0c0" stroke-width="2" points="222.2831,-28.6483 211.6922,-28.359 219.7911,-35.1897 222.2831,-28.6483"/>
</g>
<!-- 5 -->
<g id="node6" class="node">
<title>5</title>
<path fill="none" stroke="#88d856" stroke-width="2" d="M143.5,-180C143.5,-180 39.5,-180 39.5,-180 33.5,-180 27.5,-174 27.5,-168 27.5,-168 27.5,-156 27.5,-156 27.5,-150 33.5,-144 39.5,-144 39.5,-144 143.5,-144 143.5,-144 149.5,-144 155.5,-150 155.5,-156 155.5,-156 155.5,-168 155.5,-168 155.5,-174 149.5,-180 143.5,-180"/>
<text text-anchor="middle" x="91.5" y="-159.5" font-family="sans" font-size="10.00" fill="#000000">detect_polymorphisms</text>
</g>
<!-- 5&#45;&gt;2 -->
<g id="edge5" class="edge">
<title>5&#45;&gt;2</title>
<path fill="none" stroke="#c0c0c0" stroke-width="2" d="M100.332,-143.8314C104.1986,-135.8771 108.8206,-126.369 113.0968,-117.5723"/>
<polygon fill="#c0c0c0" stroke="#c0c0c0" stroke-width="2" points="116.3249,-118.9371 117.5491,-108.4133 110.0293,-115.8768 116.3249,-118.9371"/>
</g>
<!-- 6 -->
<g id="node7" class="node">
<title>6</title>
<path fill="none" stroke="#88d856" stroke-width="2" d="M294.5,-180C294.5,-180 190.5,-180 190.5,-180 184.5,-180 178.5,-174 178.5,-168 178.5,-168 178.5,-156 178.5,-156 178.5,-150 184.5,-144 190.5,-144 190.5,-144 294.5,-144 294.5,-144 300.5,-144 306.5,-150 306.5,-156 306.5,-156 306.5,-168 306.5,-168 306.5,-174 300.5,-180 294.5,-180"/>
<text text-anchor="middle" x="242.5" y="-159.5" font-family="sans" font-size="10.00" fill="#000000">detect_polymorphisms</text>
</g>
<!-- 6&#45;&gt;3 -->
<g id="edge6" class="edge">
<title>6&#45;&gt;3</title>
<path fill="none" stroke="#c0c0c0" stroke-width="2" d="M242.5,-143.8314C242.5,-136.131 242.5,-126.9743 242.5,-118.4166"/>
<polygon fill="#c0c0c0" stroke="#c0c0c0" stroke-width="2" points="246.0001,-118.4132 242.5,-108.4133 239.0001,-118.4133 246.0001,-118.4132"/>
</g>
<!-- 7 -->
<g id="node8" class="node">
<title>7</title>
<path fill="none" stroke="#88d856" stroke-width="2" d="M445.5,-180C445.5,-180 341.5,-180 341.5,-180 335.5,-180 329.5,-174 329.5,-168 329.5,-168 329.5,-156 329.5,-156 329.5,-150 335.5,-144 341.5,-144 341.5,-144 445.5,-144 445.5,-144 451.5,-144 457.5,-150 457.5,-156 457.5,-156 457.5,-168 457.5,-168 457.5,-174 451.5,-180 445.5,-180"/>
<text text-anchor="middle" x="393.5" y="-159.5" font-family="sans" font-size="10.00" fill="#000000">detect_polymorphisms</text>
</g>
<!-- 7&#45;&gt;4 -->
<g id="edge7" class="edge">
<title>7&#45;&gt;4</title>
<path fill="none" stroke="#c0c0c0" stroke-width="2" d="M388.4532,-143.8314C386.2906,-136.0463 383.7147,-126.7729 381.3152,-118.1347"/>
<polygon fill="#c0c0c0" stroke="#c0c0c0" stroke-width="2" points="384.6636,-117.1117 378.6148,-108.4133 377.919,-118.9852 384.6636,-117.1117"/>
</g>
<!-- 8 -->
<g id="node9" class="node">
<title>8</title>
<path fill="none" stroke="#bed856" stroke-width="2" d="M143,-252C143,-252 28,-252 28,-252 22,-252 16,-246 16,-240 16,-240 16,-228 16,-228 16,-222 22,-216 28,-216 28,-216 143,-216 143,-216 149,-216 155,-222 155,-228 155,-228 155,-240 155,-240 155,-246 149,-252 143,-252"/>
<text text-anchor="middle" x="85.5" y="-231.5" font-family="sans" font-size="10.00" fill="#000000">variant_calling_first_step</text>
</g>
<!-- 8&#45;&gt;5 -->
<g id="edge8" class="edge">
<title>8&#45;&gt;5</title>
<path fill="none" stroke="#c0c0c0" stroke-width="2" d="M87.0141,-215.8314C87.6558,-208.131 88.4188,-198.9743 89.1319,-190.4166"/>
<polygon fill="#c0c0c0" stroke="#c0c0c0" stroke-width="2" points="92.6229,-190.6694 89.9656,-180.4133 85.6471,-190.088 92.6229,-190.6694"/>
</g>
<!-- 9 -->
<g id="node10" class="node">
<title>9</title>
<path fill="none" stroke="#bed856" stroke-width="2" d="M300,-252C300,-252 185,-252 185,-252 179,-252 173,-246 173,-240 173,-240 173,-228 173,-228 173,-222 179,-216 185,-216 185,-216 300,-216 300,-216 306,-216 312,-222 312,-228 312,-228 312,-240 312,-240 312,-246 306,-252 300,-252"/>
<text text-anchor="middle" x="242.5" y="-231.5" font-family="sans" font-size="10.00" fill="#000000">variant_calling_first_step</text>
</g>
<!-- 9&#45;&gt;6 -->
<g id="edge9" class="edge">
<title>9&#45;&gt;6</title>
<path fill="none" stroke="#c0c0c0" stroke-width="2" d="M242.5,-215.8314C242.5,-208.131 242.5,-198.9743 242.5,-190.4166"/>
<polygon fill="#c0c0c0" stroke="#c0c0c0" stroke-width="2" points="246.0001,-190.4132 242.5,-180.4133 239.0001,-190.4133 246.0001,-190.4132"/>
</g>
<!-- 10 -->
<g id="node11" class="node">
<title>10</title>
<path fill="none" stroke="#bed856" stroke-width="2" d="M457,-252C457,-252 342,-252 342,-252 336,-252 330,-246 330,-240 330,-240 330,-228 330,-228 330,-222 336,-216 342,-216 342,-216 457,-216 457,-216 463,-216 469,-222 469,-228 469,-228 469,-240 469,-240 469,-246 463,-252 457,-252"/>
<text text-anchor="middle" x="399.5" y="-231.5" font-family="sans" font-size="10.00" fill="#000000">variant_calling_first_step</text>
</g>
<!-- 10&#45;&gt;7 -->
<g id="edge10" class="edge">
<title>10&#45;&gt;7</title>
<path fill="none" stroke="#c0c0c0" stroke-width="2" d="M397.9859,-215.8314C397.3442,-208.131 396.5812,-198.9743 395.8681,-190.4166"/>
<polygon fill="#c0c0c0" stroke="#c0c0c0" stroke-width="2" points="399.3529,-190.088 395.0344,-180.4133 392.3771,-190.6694 399.3529,-190.088"/>
</g>
<!-- 11 -->
<g id="node12" class="node">
<title>11</title>
<path fill="none" stroke="#d85656" stroke-width="2" d="M100.5,-324C100.5,-324 70.5,-324 70.5,-324 64.5,-324 58.5,-318 58.5,-312 58.5,-312 58.5,-300 58.5,-300 58.5,-294 64.5,-288 70.5,-288 70.5,-288 100.5,-288 100.5,-288 106.5,-288 112.5,-294 112.5,-300 112.5,-300 112.5,-312 112.5,-312 112.5,-318 106.5,-324 100.5,-324"/>
<text text-anchor="middle" x="85.5" y="-303.5" font-family="sans" font-size="10.00" fill="#000000">sorting</text>
</g>
<!-- 11&#45;&gt;8 -->
<g id="edge11" class="edge">
<title>11&#45;&gt;8</title>
<path fill="none" stroke="#c0c0c0" stroke-width="2" d="M85.5,-287.8314C85.5,-280.131 85.5,-270.9743 85.5,-262.4166"/>
<polygon fill="#c0c0c0" stroke="#c0c0c0" stroke-width="2" points="89.0001,-262.4132 85.5,-252.4133 82.0001,-262.4133 89.0001,-262.4132"/>
</g>
<!-- 12 -->
<g id="node13" class="node">
<title>12</title>
<path fill="none" stroke="#d85656" stroke-width="2" d="M257.5,-324C257.5,-324 227.5,-324 227.5,-324 221.5,-324 215.5,-318 215.5,-312 215.5,-312 215.5,-300 215.5,-300 215.5,-294 221.5,-288 227.5,-288 227.5,-288 257.5,-288 257.5,-288 263.5,-288 269.5,-294 269.5,-300 269.5,-300 269.5,-312 269.5,-312 269.5,-318 263.5,-324 257.5,-324"/>
<text text-anchor="middle" x="242.5" y="-303.5" font-family="sans" font-size="10.00" fill="#000000">sorting</text>
</g>
<!-- 12&#45;&gt;9 -->
<g id="edge12" class="edge">
<title>12&#45;&gt;9</title>
<path fill="none" stroke="#c0c0c0" stroke-width="2" d="M242.5,-287.8314C242.5,-280.131 242.5,-270.9743 242.5,-262.4166"/>
<polygon fill="#c0c0c0" stroke="#c0c0c0" stroke-width="2" points="246.0001,-262.4132 242.5,-252.4133 239.0001,-262.4133 246.0001,-262.4132"/>
</g>
<!-- 13 -->
<g id="node14" class="node">
<title>13</title>
<path fill="none" stroke="#d85656" stroke-width="2" d="M414.5,-324C414.5,-324 384.5,-324 384.5,-324 378.5,-324 372.5,-318 372.5,-312 372.5,-312 372.5,-300 372.5,-300 372.5,-294 378.5,-288 384.5,-288 384.5,-288 414.5,-288 414.5,-288 420.5,-288 426.5,-294 426.5,-300 426.5,-300 426.5,-312 426.5,-312 426.5,-318 420.5,-324 414.5,-324"/>
<text text-anchor="middle" x="399.5" y="-303.5" font-family="sans" font-size="10.00" fill="#000000">sorting</text>
</g>
<!-- 13&#45;&gt;10 -->
<g id="edge13" class="edge">
<title>13&#45;&gt;10</title>
<path fill="none" stroke="#c0c0c0" stroke-width="2" d="M399.5,-287.8314C399.5,-280.131 399.5,-270.9743 399.5,-262.4166"/>
<polygon fill="#c0c0c0" stroke="#c0c0c0" stroke-width="2" points="403.0001,-262.4132 399.5,-252.4133 396.0001,-262.4133 403.0001,-262.4132"/>
</g>
<!-- 14 -->
<g id="node15" class="node">
<title>14</title>
<path fill="none" stroke="#56d8c1" stroke-width="2" d="M121,-396C121,-396 50,-396 50,-396 44,-396 38,-390 38,-384 38,-384 38,-372 38,-372 38,-366 44,-360 50,-360 50,-360 121,-360 121,-360 127,-360 133,-366 133,-372 133,-372 133,-384 133,-384 133,-390 127,-396 121,-396"/>
<text text-anchor="middle" x="85.5" y="-381" font-family="sans" font-size="10.00" fill="#000000">convert_to_bam</text>
<text text-anchor="middle" x="85.5" y="-370" font-family="sans" font-size="10.00" fill="#000000">group: SE</text>
</g>
<!-- 14&#45;&gt;11 -->
<g id="edge14" class="edge">
<title>14&#45;&gt;11</title>
<path fill="none" stroke="#c0c0c0" stroke-width="2" d="M85.5,-359.8314C85.5,-352.131 85.5,-342.9743 85.5,-334.4166"/>
<polygon fill="#c0c0c0" stroke="#c0c0c0" stroke-width="2" points="89.0001,-334.4132 85.5,-324.4133 82.0001,-334.4133 89.0001,-334.4132"/>
</g>
<!-- 15 -->
<g id="node16" class="node">
<title>15</title>
<path fill="none" stroke="#56d8c1" stroke-width="2" d="M278,-396C278,-396 207,-396 207,-396 201,-396 195,-390 195,-384 195,-384 195,-372 195,-372 195,-366 201,-360 207,-360 207,-360 278,-360 278,-360 284,-360 290,-366 290,-372 290,-372 290,-384 290,-384 290,-390 284,-396 278,-396"/>
<text text-anchor="middle" x="242.5" y="-381" font-family="sans" font-size="10.00" fill="#000000">convert_to_bam</text>
<text text-anchor="middle" x="242.5" y="-370" font-family="sans" font-size="10.00" fill="#000000">group: PE</text>
</g>
<!-- 15&#45;&gt;12 -->
<g id="edge15" class="edge">
<title>15&#45;&gt;12</title>
<path fill="none" stroke="#c0c0c0" stroke-width="2" d="M242.5,-359.8314C242.5,-352.131 242.5,-342.9743 242.5,-334.4166"/>
<polygon fill="#c0c0c0" stroke="#c0c0c0" stroke-width="2" points="246.0001,-334.4132 242.5,-324.4133 239.0001,-334.4133 246.0001,-334.4132"/>
</g>
<!-- 16 -->
<g id="node17" class="node">
<title>16</title>
<path fill="none" stroke="#56d8c1" stroke-width="2" d="M435,-396C435,-396 364,-396 364,-396 358,-396 352,-390 352,-384 352,-384 352,-372 352,-372 352,-366 358,-360 364,-360 364,-360 435,-360 435,-360 441,-360 447,-366 447,-372 447,-372 447,-384 447,-384 447,-390 441,-396 435,-396"/>
<text text-anchor="middle" x="399.5" y="-381" font-family="sans" font-size="10.00" fill="#000000">convert_to_bam</text>
<text text-anchor="middle" x="399.5" y="-370" font-family="sans" font-size="10.00" fill="#000000">group: SE</text>
</g>
<!-- 16&#45;&gt;13 -->
<g id="edge16" class="edge">
<title>16&#45;&gt;13</title>
<path fill="none" stroke="#c0c0c0" stroke-width="2" d="M399.5,-359.8314C399.5,-352.131 399.5,-342.9743 399.5,-334.4166"/>
<polygon fill="#c0c0c0" stroke="#c0c0c0" stroke-width="2" points="403.0001,-334.4132 399.5,-324.4133 396.0001,-334.4133 403.0001,-334.4132"/>
</g>
<!-- 17 -->
<g id="node18" class="node">
<title>17</title>
<path fill="none" stroke="#d8bc56" stroke-width="2" d="M118.5,-468C118.5,-468 52.5,-468 52.5,-468 46.5,-468 40.5,-462 40.5,-456 40.5,-456 40.5,-444 40.5,-444 40.5,-438 46.5,-432 52.5,-432 52.5,-432 118.5,-432 118.5,-432 124.5,-432 130.5,-438 130.5,-444 130.5,-444 130.5,-456 130.5,-456 130.5,-462 124.5,-468 118.5,-468"/>
<text text-anchor="middle" x="85.5" y="-447.5" font-family="sans" font-size="10.00" fill="#000000">align_reads_SE</text>
</g>
<!-- 17&#45;&gt;14 -->
<g id="edge17" class="edge">
<title>17&#45;&gt;14</title>
<path fill="none" stroke="#c0c0c0" stroke-width="2" d="M85.5,-431.8314C85.5,-424.131 85.5,-414.9743 85.5,-406.4166"/>
<polygon fill="#c0c0c0" stroke="#c0c0c0" stroke-width="2" points="89.0001,-406.4132 85.5,-396.4133 82.0001,-406.4133 89.0001,-406.4132"/>
</g>
<!-- 18 -->
<g id="node19" class="node">
<title>18</title>
<path fill="none" stroke="#568ad8" stroke-width="2" d="M275.5,-468C275.5,-468 209.5,-468 209.5,-468 203.5,-468 197.5,-462 197.5,-456 197.5,-456 197.5,-444 197.5,-444 197.5,-438 203.5,-432 209.5,-432 209.5,-432 275.5,-432 275.5,-432 281.5,-432 287.5,-438 287.5,-444 287.5,-444 287.5,-456 287.5,-456 287.5,-462 281.5,-468 275.5,-468"/>
<text text-anchor="middle" x="242.5" y="-447.5" font-family="sans" font-size="10.00" fill="#000000">align_reads_PE</text>
</g>
<!-- 18&#45;&gt;15 -->
<g id="edge18" class="edge">
<title>18&#45;&gt;15</title>
<path fill="none" stroke="#c0c0c0" stroke-width="2" d="M242.5,-431.8314C242.5,-424.131 242.5,-414.9743 242.5,-406.4166"/>
<polygon fill="#c0c0c0" stroke="#c0c0c0" stroke-width="2" points="246.0001,-406.4132 242.5,-396.4133 239.0001,-406.4133 246.0001,-406.4132"/>
</g>
<!-- 19 -->
<g id="node20" class="node">
<title>19</title>
<path fill="none" stroke="#d8bc56" stroke-width="2" stroke-dasharray="5,2" d="M432.5,-468C432.5,-468 366.5,-468 366.5,-468 360.5,-468 354.5,-462 354.5,-456 354.5,-456 354.5,-444 354.5,-444 354.5,-438 360.5,-432 366.5,-432 366.5,-432 432.5,-432 432.5,-432 438.5,-432 444.5,-438 444.5,-444 444.5,-444 444.5,-456 444.5,-456 444.5,-462 438.5,-468 432.5,-468"/>
<text text-anchor="middle" x="399.5" y="-447.5" font-family="sans" font-size="10.00" fill="#000000">align_reads_SE</text>
</g>
<!-- 19&#45;&gt;16 -->
<g id="edge19" class="edge">
<title>19&#45;&gt;16</title>
<path fill="none" stroke="#c0c0c0" stroke-width="2" d="M399.5,-431.8314C399.5,-424.131 399.5,-414.9743 399.5,-406.4166"/>
<polygon fill="#c0c0c0" stroke="#c0c0c0" stroke-width="2" points="403.0001,-406.4132 399.5,-396.4133 396.0001,-406.4133 403.0001,-406.4132"/>
</g>
<!-- 20 -->
<g id="node21" class="node">
<title>20</title>
<path fill="none" stroke="#56d88a" stroke-width="2" d="M137.5,-545C137.5,-545 33.5,-545 33.5,-545 27.5,-545 21.5,-539 21.5,-533 21.5,-533 21.5,-516 21.5,-516 21.5,-510 27.5,-504 33.5,-504 33.5,-504 137.5,-504 137.5,-504 143.5,-504 149.5,-510 149.5,-516 149.5,-516 149.5,-533 149.5,-533 149.5,-539 143.5,-545 137.5,-545"/>
<text text-anchor="middle" x="85.5" y="-533" font-family="sans" font-size="10.00" fill="#000000">trimming</text>
<text text-anchor="middle" x="85.5" y="-522" font-family="sans" font-size="10.00" fill="#000000">GROUP: SE</text>
<text text-anchor="middle" x="85.5" y="-511" font-family="sans" font-size="10.00" fill="#000000">SAMPLES: SRR2589044</text>
</g>
<!-- 20&#45;&gt;17 -->
<g id="edge20" class="edge">
<title>20&#45;&gt;17</title>
<path fill="none" stroke="#c0c0c0" stroke-width="2" d="M85.5,-503.7476C85.5,-495.8767 85.5,-486.7743 85.5,-478.3232"/>
<polygon fill="#c0c0c0" stroke="#c0c0c0" stroke-width="2" points="89.0001,-478.1086 85.5,-468.1087 82.0001,-478.1087 89.0001,-478.1086"/>
</g>
<!-- 21 -->
<g id="node22" class="node">
<title>21</title>
<path fill="none" stroke="#56d88a" stroke-width="2" d="M294.5,-545C294.5,-545 190.5,-545 190.5,-545 184.5,-545 178.5,-539 178.5,-533 178.5,-533 178.5,-516 178.5,-516 178.5,-510 184.5,-504 190.5,-504 190.5,-504 294.5,-504 294.5,-504 300.5,-504 306.5,-510 306.5,-516 306.5,-516 306.5,-533 306.5,-533 306.5,-539 300.5,-545 294.5,-545"/>
<text text-anchor="middle" x="242.5" y="-533" font-family="sans" font-size="10.00" fill="#000000">trimming</text>
<text text-anchor="middle" x="242.5" y="-522" font-family="sans" font-size="10.00" fill="#000000">GROUP: PE</text>
<text text-anchor="middle" x="242.5" y="-511" font-family="sans" font-size="10.00" fill="#000000">SAMPLES: SRR2584863</text>
</g>
<!-- 21&#45;&gt;18 -->
<g id="edge21" class="edge">
<title>21&#45;&gt;18</title>
<path fill="none" stroke="#c0c0c0" stroke-width="2" d="M242.5,-503.7476C242.5,-495.8767 242.5,-486.7743 242.5,-478.3232"/>
<polygon fill="#c0c0c0" stroke="#c0c0c0" stroke-width="2" points="246.0001,-478.1086 242.5,-468.1087 239.0001,-478.1087 246.0001,-478.1086"/>
</g>
<!-- 22 -->
<g id="node23" class="node">
<title>22</title>
<path fill="none" stroke="#56d88a" stroke-width="2" stroke-dasharray="5,2" d="M451.5,-545C451.5,-545 347.5,-545 347.5,-545 341.5,-545 335.5,-539 335.5,-533 335.5,-533 335.5,-516 335.5,-516 335.5,-510 341.5,-504 347.5,-504 347.5,-504 451.5,-504 451.5,-504 457.5,-504 463.5,-510 463.5,-516 463.5,-516 463.5,-533 463.5,-533 463.5,-539 457.5,-545 451.5,-545"/>
<text text-anchor="middle" x="399.5" y="-533" font-family="sans" font-size="10.00" fill="#000000">trimming</text>
<text text-anchor="middle" x="399.5" y="-522" font-family="sans" font-size="10.00" fill="#000000">GROUP: SE</text>
<text text-anchor="middle" x="399.5" y="-511" font-family="sans" font-size="10.00" fill="#000000">SAMPLES: SRR2584866</text>
</g>
<!-- 22&#45;&gt;19 -->
<g id="edge22" class="edge">
<title>22&#45;&gt;19</title>
<path fill="none" stroke="#c0c0c0" stroke-width="2" d="M399.5,-503.7476C399.5,-495.8767 399.5,-486.7743 399.5,-478.3232"/>
<polygon fill="#c0c0c0" stroke="#c0c0c0" stroke-width="2" points="403.0001,-478.1086 399.5,-468.1087 396.0001,-478.1087 403.0001,-478.1086"/>
</g>
</g>
</svg>
